<svg width="16" height="20" viewBox="0 0 16 20" fill="none" xmlns="http://www.w3.org/2000/svg">
<path fill-rule="evenodd" clip-rule="evenodd" d="M0 5.89744C0 4.90616 0.808776 4.10256 1.80645 4.10256H10.0645C11.0622 4.10256 11.871 4.90616 11.871 5.89744V18.2051C11.871 19.1964 11.0622 20 10.0645 20H1.80645C0.808776 20 0 19.1964 0 18.2051V5.89744ZM1.80645 5.64103C1.66393 5.64103 1.54839 5.75582 1.54839 5.89744V18.2051C1.54839 18.3467 1.66393 18.4615 1.80645 18.4615H10.0645C10.207 18.4615 10.3226 18.3467 10.3226 18.2051V5.89744C10.3226 5.75583 10.207 5.64103 10.0645 5.64103H1.80645Z" fill="#08AEC5"/>
<path fill-rule="evenodd" clip-rule="evenodd" d="M4.12903 1.79487C4.12903 0.803592 4.93781 0 5.93548 0H14.1935C15.1912 0 16 0.803591 16 1.79487V14.1026C16 15.0938 15.1912 15.8974 14.1935 15.8974H12.6452V14.359H14.1935C14.3361 14.359 14.4516 14.2442 14.4516 14.1026V1.79487C14.4516 1.65326 14.3361 1.53846 14.1935 1.53846H5.93548C5.79296 1.53846 5.67742 1.65326 5.67742 1.79487V2.82051H4.12903V1.79487Z" fill="#08AEC5"/>
</svg>
