<svg width="25" height="23" viewBox="0 0 25 23" fill="none" xmlns="http://www.w3.org/2000/svg">
<path fill-rule="evenodd" clip-rule="evenodd" d="M0 -0.000244141H3.04593C6.45191 -0.000244141 9.21301 2.75329 9.21301 6.14995V11.0242C9.21301 12.6548 10.5385 13.9766 12.1735 13.9766C13.8085 13.9766 15.1339 12.6548 15.1339 11.0242V6.14995C15.1339 2.75329 17.895 -0.000244141 21.301 -0.000244141H24.3984V10.834C24.3984 17.553 18.9367 22.9998 12.1992 22.9998C5.46178 22.9998 0 17.553 0 10.834V-0.000244141Z" fill="url(#paint0_linear)"/>
<path fill-rule="evenodd" clip-rule="evenodd" d="M0 -0.000244141H3.04593C6.45191 -0.000244141 9.21301 2.75329 9.21301 6.14995V11.0242C9.21301 12.6548 10.5385 13.9766 12.1735 13.9766C13.8085 13.9766 15.1339 12.6548 15.1339 11.0242V6.14995C15.1339 2.75329 17.895 -0.000244141 21.301 -0.000244141H24.3984V10.834C24.3984 17.553 18.9367 22.9998 12.1992 22.9998C5.46178 22.9998 0 17.553 0 10.834V-0.000244141Z" fill="url(#paint1_linear)"/>
<path fill-rule="evenodd" clip-rule="evenodd" d="M0 -0.000244141H3.04593C6.45191 -0.000244141 9.21301 2.75329 9.21301 6.14995V11.0242C9.21301 12.6548 10.5385 13.9766 12.1735 13.9766C13.8085 13.9766 15.1339 12.6548 15.1339 11.0242V6.14995C15.1339 2.75329 17.895 -0.000244141 21.301 -0.000244141H24.3984V10.834C24.3984 17.553 18.9367 22.9998 12.1992 22.9998C5.46178 22.9998 0 17.553 0 10.834V-0.000244141Z" fill="url(#paint2_linear)"/>
<path fill-rule="evenodd" clip-rule="evenodd" d="M0 -0.000244141H3.04593C6.45191 -0.000244141 9.21301 2.75329 9.21301 6.14995V11.0242C9.21301 12.6548 10.5385 13.9766 12.1735 13.9766C13.8085 13.9766 15.1339 12.6548 15.1339 11.0242V6.14995C15.1339 2.75329 17.895 -0.000244141 21.301 -0.000244141H24.3984V10.834C24.3984 17.553 18.9367 22.9998 12.1992 22.9998C5.46178 22.9998 0 17.553 0 10.834V-0.000244141Z" fill="url(#paint3_linear)"/>
<path opacity="0.973865" fill-rule="evenodd" clip-rule="evenodd" d="M12.7017 13.9695L14.163 14.6513L17.0032 14.3924L18.2934 13.9695L19.803 13.4305L21.4986 11.9889L22.8885 11.2871L23.5326 9.4023L23.7622 7.8309L24.1093 6.70162V4.83644L24.3207 3.12135V1.75122C23.9128 4.54972 23.6735 5.22152 23.2847 6.02166C22.7015 7.22186 22.7015 7.24649 21.9143 8.32813C21.1272 9.40976 20.6923 9.92785 19.4838 10.9055C18.2753 11.8832 17.8019 12.1632 16.4539 12.721C15.5552 13.0928 14.6274 13.3773 13.6705 13.5745L12.7017 13.9695Z" fill="url(#paint4_linear)"/>
<path fill-rule="evenodd" clip-rule="evenodd" d="M0 -0.000244141H3.04593C6.45191 -0.000244141 9.21301 2.75329 9.21301 6.14995V11.0242C9.21301 12.6548 10.5385 13.9766 12.1735 13.9766C13.8085 13.9766 15.1339 12.6548 15.1339 11.0242V6.14995C15.1339 2.75329 17.895 -0.000244141 21.301 -0.000244141H24.3984V10.834C24.3984 17.553 18.9367 22.9998 12.1992 22.9998C5.46178 22.9998 0 17.553 0 10.834V-0.000244141Z" fill="url(#paint5_linear)"/>
<path fill-rule="evenodd" clip-rule="evenodd" d="M0 -0.000244141H3.04593C6.45191 -0.000244141 9.21301 2.75329 9.21301 6.14995V10.9986C9.21301 12.6433 10.55 13.9766 12.1992 13.9766C14.138 13.9766 16.0498 13.5241 17.7818 12.6552L17.9164 12.5877C19.7318 11.6771 21.2823 10.3169 22.4196 8.63751L22.4302 8.62186C23.5707 6.93762 24.215 4.96829 24.29 2.93735L24.3984 -0.000244141V10.834C24.3984 17.553 18.9367 22.9998 12.1992 22.9998C5.46178 22.9998 0 17.553 0 10.834V-0.000244141Z" fill="url(#paint6_linear)"/>
<path fill-rule="evenodd" clip-rule="evenodd" d="M0 -0.000244141H3.04593C6.45191 -0.000244141 9.21301 2.75329 9.21301 6.14995V10.9986C9.21301 12.6433 10.55 13.9766 12.1992 13.9766C14.138 13.9766 16.0498 13.5241 17.7818 12.6552L17.9164 12.5877C19.7318 11.6771 21.2823 10.3169 22.4196 8.63751L22.4302 8.62186C23.5707 6.93762 24.215 4.96829 24.29 2.93735L24.3984 -0.000244141V10.834C24.3984 17.553 18.9367 22.9998 12.1992 22.9998C5.46178 22.9998 0 17.553 0 10.834V-0.000244141Z" fill="url(#paint7_linear)"/>
<mask id="mask0" mask-type="alpha" maskUnits="userSpaceOnUse" x="0" y="-1" width="25" height="24">
<path fill-rule="evenodd" clip-rule="evenodd" d="M0 -0.000244141H3.04593C6.45191 -0.000244141 9.21301 2.75329 9.21301 6.14995V10.9986C9.21301 12.6433 10.55 13.9766 12.1992 13.9766C14.138 13.9766 16.0498 13.5241 17.7818 12.6552L17.9164 12.5877C19.7318 11.6771 21.2823 10.3169 22.4196 8.63751L22.4302 8.62186C23.5707 6.93762 24.215 4.96829 24.29 2.93735L24.3984 -0.000244141V10.834C24.3984 17.553 18.9367 22.9998 12.1992 22.9998C5.46178 22.9998 0 17.553 0 10.834V-0.000244141Z" fill="url(#paint8_linear)"/>
</mask>
<g mask="url(#mask0)">
<path opacity="0.5" fill-rule="evenodd" clip-rule="evenodd" d="M9.20124 9.35143L8.95435 11.0965L8.61593 14.0395L7.68831 15.0761L7.48453 16.6621L8.00279 18.8233L7.99882 20.377L9.39034 21.805L10.6901 22.7224L11.5415 23.5435L13.2079 24.3903L14.6443 25.3568L15.8685 25.9788L14.8764 25.2858C14.2924 24.8778 13.7511 24.4121 13.2607 23.8959L12.9475 23.5661C12.6672 23.271 12.3342 23.0305 11.9656 22.8569C11.6078 22.6885 11.3294 22.3882 11.1891 22.0193L11.049 21.6509C10.8117 21.0271 10.6901 20.3655 10.6901 19.6983L10.6901 13.5734L10.1643 13.1564L9.68505 12.609L9.5653 12.4006L9.53668 12.3417C9.49541 12.2568 9.45695 12.1705 9.42136 12.083C9.38579 11.9956 9.35483 11.9064 9.32862 11.8158L9.32478 11.8025C9.29601 11.703 9.27355 11.6018 9.25751 11.4995L9.24374 11.4117L9.20124 11.0546L9.20124 9.35143Z" fill="url(#paint9_linear)"/>
</g>
<path fill-rule="evenodd" clip-rule="evenodd" d="M0 -0.000244141H3.04593C6.45191 -0.000244141 9.21301 2.75329 9.21301 6.14995V10.9986C9.21301 12.6433 10.55 13.9766 12.1992 13.9766C14.138 13.9766 16.0498 13.5241 17.7818 12.6552L17.9164 12.5877C19.7318 11.6771 21.2823 10.3169 22.4196 8.63751L22.4302 8.62186C23.5707 6.93762 24.215 4.96829 24.29 2.93735L24.3984 -0.000244141V10.834C24.3984 17.553 18.9367 22.9998 12.1992 22.9998C5.46178 22.9998 0 17.553 0 10.834V-0.000244141Z" fill="url(#paint10_linear)"/>
<path fill-rule="evenodd" clip-rule="evenodd" d="M0 -0.000244141H3.04593C6.45191 -0.000244141 9.21301 2.75329 9.21301 6.14995V7.63833V20.0218C9.21301 21.6665 10.55 22.9998 12.1992 22.9998C5.46178 22.9998 0 17.553 0 10.834V-0.000244141Z" fill="url(#paint11_linear)"/>
<path fill-rule="evenodd" clip-rule="evenodd" d="M0 -0.000244141H3.04593C6.45191 -0.000244141 9.21301 2.75329 9.21301 6.14995V7.63833V20.0218C9.21301 21.6665 10.55 22.9998 12.1992 22.9998C5.46178 22.9998 0 17.553 0 10.834V-0.000244141Z" fill="url(#paint12_linear)"/>
<defs>
<linearGradient id="paint0_linear" x1="12.1992" y1="-0.000244141" x2="12.1992" y2="22.9998" gradientUnits="userSpaceOnUse">
<stop stop-color="#DEEDFF"/>
<stop offset="1" stop-color="#B2D4FD"/>
</linearGradient>
<linearGradient id="paint1_linear" x1="22.083" y1="1.22402" x2="21.3589" y2="14.4521" gradientUnits="userSpaceOnUse">
<stop stop-color="#00D6D9"/>
<stop offset="1" stop-color="#455CDA"/>
</linearGradient>
<linearGradient id="paint2_linear" x1="15.7809" y1="1.22402" x2="20.7373" y2="8.31441" gradientUnits="userSpaceOnUse">
<stop stop-color="#00D6D9"/>
<stop offset="1" stop-color="#04CFD9" stop-opacity="0"/>
</linearGradient>
<linearGradient id="paint3_linear" x1="15.8224" y1="11.4998" x2="17.4333" y2="13.594" gradientUnits="userSpaceOnUse">
<stop stop-color="#3F66DA" stop-opacity="0"/>
<stop offset="1" stop-color="#2E2EAE"/>
</linearGradient>
<linearGradient id="paint4_linear" x1="17.1767" y1="9.27445" x2="18.7799" y2="13.3394" gradientUnits="userSpaceOnUse">
<stop stop-color="#2D41B3" stop-opacity="0"/>
<stop offset="1" stop-color="#141E62"/>
</linearGradient>
<linearGradient id="paint5_linear" x1="10.5952" y1="5.50018" x2="19.8021" y2="16.0025" gradientUnits="userSpaceOnUse">
<stop stop-color="#3F66DA" stop-opacity="0"/>
<stop offset="1" stop-color="#2436C1"/>
</linearGradient>
<linearGradient id="paint6_linear" x1="29.9093" y1="28.2908" x2="21.4588" y2="6.56843" gradientUnits="userSpaceOnUse">
<stop stop-color="#706AE1"/>
<stop offset="1" stop-color="#4352ED"/>
</linearGradient>
<linearGradient id="paint7_linear" x1="46.5188" y1="1.22402" x2="25.8906" y2="26.7971" gradientUnits="userSpaceOnUse">
<stop stop-color="#00D6D9"/>
<stop offset="1" stop-color="#0FC4DD" stop-opacity="0"/>
</linearGradient>
<linearGradient id="paint8_linear" x1="17.073" y1="16.2198" x2="9.74615" y2="21.1096" gradientUnits="userSpaceOnUse">
<stop stop-color="#3F4DDA" stop-opacity="0"/>
<stop offset="1" stop-color="#2736A4"/>
</linearGradient>
<linearGradient id="paint9_linear" x1="13.2443" y1="16.2766" x2="9.01289" y2="16.2963" gradientUnits="userSpaceOnUse">
<stop stop-color="#2D41B3" stop-opacity="0"/>
<stop offset="1" stop-color="#141E62"/>
</linearGradient>
<linearGradient id="paint10_linear" x1="17.073" y1="16.2198" x2="9.74615" y2="21.1096" gradientUnits="userSpaceOnUse">
<stop stop-color="#3F4DDA" stop-opacity="0"/>
<stop offset="1" stop-color="#2736A4"/>
</linearGradient>
<linearGradient id="paint11_linear" x1="4.69102" y1="-0.00024404" x2="11.8523" y2="16.006" gradientUnits="userSpaceOnUse">
<stop stop-color="#00D6D9"/>
<stop offset="1" stop-color="#5272EE"/>
</linearGradient>
<linearGradient id="paint12_linear" x1="3.39247" y1="5.57998" x2="8.92413" y2="14.0315" gradientUnits="userSpaceOnUse">
<stop stop-color="#00D6D9"/>
<stop offset="1" stop-color="#0FC4DD" stop-opacity="0"/>
</linearGradient>
</defs>
</svg>
