<svg width="130" height="33" viewBox="0 0 130 33" fill="none" xmlns="http://www.w3.org/2000/svg">
<g id="Logo">
<path id="Universal Login SDK" fill-rule="evenodd" clip-rule="evenodd" d="M60.198 17.1193V7.87677H62.3691V17.1193C62.3691 18.6187 61.8619 19.851 60.8473 20.8163C59.853 21.7611 58.6355 22.2335 57.1948 22.2335C55.7542 22.2335 54.5164 21.7611 53.5018 20.8163C52.5075 19.851 52.0002 18.6187 52.0002 17.1193V7.87677H54.1917V17.1193C54.1917 18.0025 54.4758 18.7419 55.0642 19.2964C55.6527 19.851 56.3629 20.1385 57.1948 20.1385C58.0268 20.1385 58.7167 19.851 59.3051 19.2964C59.8936 18.7419 60.198 18.0025 60.198 17.1193ZM67.6042 16.872V22.0273H65.5142V12.4356H67.6042V13.8733C68.1115 12.8258 69.3695 12.2302 70.5058 12.2302C72.7988 12.2302 74.1177 13.7295 74.1177 16.4407V22.0273H72.0277V16.6871C72.0277 15.1878 71.2566 14.3046 70.0391 14.3046C68.6593 14.3046 67.6042 15.1262 67.6042 16.872ZM79.008 22.0273H76.9382V12.4356H79.008V22.0273ZM77.9731 7.21899C78.7645 7.21899 79.3529 7.79376 79.3529 8.55327C79.3529 9.31279 78.7645 9.88755 77.9731 9.88755C77.2223 9.88755 76.573 9.29226 76.573 8.55327C76.573 7.81429 77.2223 7.21899 77.9731 7.21899ZM90.412 22.0281H82.6606V7.87677H84.8115V20.0358H90.412V22.0281ZM96.7427 20.1791C97.5543 20.1791 98.2442 19.9121 98.7921 19.3575C99.34 18.8029 99.6241 18.0841 99.6241 17.2009C99.6241 15.4756 98.366 14.3049 96.7427 14.3049C95.9513 14.3049 95.2614 14.5719 94.7135 15.1059C94.1657 15.6399 93.8816 16.3383 93.8816 17.2009C93.8816 18.0841 94.1657 18.8029 94.7135 19.3575C95.2614 19.9121 95.9513 20.1791 96.7427 20.1791ZM96.7426 12.2302C98.1427 12.2302 99.3196 12.682 100.273 13.6063C101.227 14.5305 101.714 15.7218 101.714 17.2006C101.714 18.6794 101.227 19.8912 100.253 20.836C99.2993 21.7602 98.1224 22.2326 96.7426 22.2326C95.3628 22.2326 94.1859 21.7602 93.2322 20.836C92.2785 19.8912 91.8118 18.6794 91.8118 17.2006C91.8118 15.7218 92.2785 14.5305 93.2322 13.6063C94.1859 12.682 95.3628 12.2302 96.7426 12.2302ZM111.393 17.2417C111.393 15.4138 110.115 14.2841 108.471 14.2841C107.66 14.2841 106.97 14.5717 106.422 15.1262C105.874 15.6808 105.59 16.3791 105.59 17.2417C105.59 18.1249 105.874 18.8232 106.422 19.3778C106.97 19.9323 107.66 20.1993 108.471 20.1993C109.222 20.1993 109.912 19.9323 110.5 19.3983C111.089 18.8438 111.393 18.1249 111.393 17.2417ZM104.738 23.6704L105.61 23.2391C106.097 24.2249 107.213 24.8411 108.269 24.8411C110.379 24.8411 111.434 23.5882 111.434 21.0619V20.569C110.886 21.6165 109.547 22.2326 108.228 22.2326C106.909 22.2326 105.773 21.7808 104.839 20.8565C103.906 19.9323 103.439 18.741 103.439 17.2622C103.439 15.7629 103.906 14.5511 104.839 13.6268C105.773 12.7026 106.909 12.2302 108.228 12.2302C109.547 12.2302 110.866 12.8463 111.434 13.8527V12.4356H113.483V20.6101C113.483 24.7384 111.738 26.8128 108.269 26.8128C106.422 26.8128 104.778 25.827 103.886 24.1222L104.738 23.6704ZM118.475 22.0273H116.405V12.4356H118.475V22.0273ZM117.44 7.21899C118.231 7.21899 118.819 7.79376 118.819 8.55327C118.819 9.31279 118.231 9.88755 117.44 9.88755C116.689 9.88755 116.04 9.29226 116.04 8.55327C116.04 7.81429 116.689 7.21899 117.44 7.21899ZM123.486 16.872V22.0273H121.396V12.4356H123.486V13.8733C123.994 12.8258 125.252 12.2302 126.388 12.2302C128.681 12.2302 130 13.7295 130 16.4407V22.0273H127.91V16.6871C127.91 15.1878 127.139 14.3046 125.921 14.3046C124.542 14.3046 123.486 15.1262 123.486 16.872Z" fill="#12083A"/>
<g id="Group 2">
<path id="Rectangle Copy" fill-rule="evenodd" clip-rule="evenodd" d="M0 0H4.41438C9.35059 0 13.3522 3.95072 13.3522 8.82418V15.8177C13.3522 18.1572 15.2731 20.0537 17.6427 20.0537C20.0123 20.0537 21.9332 18.1572 21.9332 15.8177V8.82418C21.9332 3.95072 25.9348 0 30.871 0H35.36V15.5447C35.36 25.185 27.4444 33 17.68 33C7.91561 33 0 25.185 0 15.5447V0Z" fill="url(#paint0_linear)"/>
<path id="Rectangle Copy 2" fill-rule="evenodd" clip-rule="evenodd" d="M0 0H4.41438C9.35059 0 13.3522 3.95072 13.3522 8.82418V15.8177C13.3522 18.1572 15.2731 20.0537 17.6427 20.0537C20.0123 20.0537 21.9332 18.1572 21.9332 15.8177V8.82418C21.9332 3.95072 25.9348 0 30.871 0H35.36V15.5447C35.36 25.185 27.4444 33 17.68 33C7.91561 33 0 25.185 0 15.5447V0Z" fill="url(#paint1_linear)"/>
<path id="Rectangle Copy 2_2" fill-rule="evenodd" clip-rule="evenodd" d="M0 0H4.41438C9.35059 0 13.3522 3.95072 13.3522 8.82418V15.8177C13.3522 18.1572 15.2731 20.0537 17.6427 20.0537C20.0123 20.0537 21.9332 18.1572 21.9332 15.8177V8.82418C21.9332 3.95072 25.9348 0 30.871 0H35.36V15.5447C35.36 25.185 27.4444 33 17.68 33C7.91561 33 0 25.185 0 15.5447V0Z" fill="url(#paint2_linear)"/>
<path id="Rectangle Copy 2_3" fill-rule="evenodd" clip-rule="evenodd" d="M0 0H4.41438C9.35059 0 13.3522 3.95072 13.3522 8.82418V15.8177C13.3522 18.1572 15.2731 20.0537 17.6427 20.0537C20.0123 20.0537 21.9332 18.1572 21.9332 15.8177V8.82418C21.9332 3.95072 25.9348 0 30.871 0H35.36V15.5447C35.36 25.185 27.4444 33 17.68 33C7.91561 33 0 25.185 0 15.5447V0Z" fill="url(#paint3_linear)"/>
<path id="Path 4" opacity="0.973865" fill-rule="evenodd" clip-rule="evenodd" d="M18.4082 20.0424L20.5261 21.0205L24.6423 20.6491L26.5122 20.0424L28.7 19.2691L31.1575 17.2006L33.1718 16.1936L34.1053 13.4894L34.438 11.2348L34.9411 9.61448V6.93835L35.2474 4.47756V2.51172C34.6563 6.52697 34.3095 7.49086 33.7461 8.63888C32.9008 10.3609 32.9008 10.3962 31.76 11.9482C30.6191 13.5001 29.9889 14.2434 28.2374 15.6462C26.486 17.049 25.7999 17.4507 23.8463 18.251C22.5438 18.7845 21.1992 19.1927 19.8124 19.4757L18.4082 20.0424Z" fill="url(#paint4_linear)"/>
<path id="Rectangle Copy 2_4" fill-rule="evenodd" clip-rule="evenodd" d="M0 0H4.41438C9.35059 0 13.3522 3.95072 13.3522 8.82418V15.8177C13.3522 18.1572 15.2731 20.0537 17.6427 20.0537C20.0123 20.0537 21.9332 18.1572 21.9332 15.8177V8.82418C21.9332 3.95072 25.9348 0 30.871 0H35.36V15.5447C35.36 25.185 27.4444 33 17.68 33C7.91561 33 0 25.185 0 15.5447V0Z" fill="url(#paint5_linear)"/>
<path id="Rectangle Copy 3" fill-rule="evenodd" clip-rule="evenodd" d="M0 0H4.41438C9.35059 0 13.3522 3.95072 13.3522 8.82418V15.7809C13.3522 18.1407 15.2898 20.0537 17.68 20.0537C20.4898 20.0537 23.2606 19.4044 25.7708 18.1579L25.9658 18.061C28.5968 16.7544 30.8439 14.8029 32.4921 12.3933L32.5075 12.3708C34.1604 9.95431 35.0942 7.12876 35.2028 4.2148L35.36 0V15.5447C35.36 25.185 27.4444 33 17.68 33C7.91561 33 0 25.185 0 15.5447V0Z" fill="url(#paint6_linear)"/>
<path id="Rectangle Copy 3_2" fill-rule="evenodd" clip-rule="evenodd" d="M0 0H4.41438C9.35059 0 13.3522 3.95072 13.3522 8.82418V15.7809C13.3522 18.1407 15.2898 20.0537 17.68 20.0537C20.4898 20.0537 23.2606 19.4044 25.7708 18.1579L25.9658 18.061C28.5968 16.7544 30.8439 14.8029 32.4921 12.3933L32.5075 12.3708C34.1604 9.95431 35.0942 7.12876 35.2028 4.2148L35.36 0V15.5447C35.36 25.185 27.4444 33 17.68 33C7.91561 33 0 25.185 0 15.5447V0Z" fill="url(#paint7_linear)"/>
<g id="Mask Group">
<mask id="mask0" mask-type="alpha" maskUnits="userSpaceOnUse" x="0" y="0" width="36" height="33">
<path id="Rectangle Copy 5" fill-rule="evenodd" clip-rule="evenodd" d="M0 0H4.41438C9.35059 0 13.3522 3.95072 13.3522 8.82418V15.7809C13.3522 18.1407 15.2898 20.0537 17.68 20.0537C20.4898 20.0537 23.2606 19.4044 25.7708 18.1579L25.9658 18.061C28.5968 16.7544 30.8439 14.8029 32.4921 12.3933L32.5075 12.3708C34.1604 9.95431 35.0942 7.12876 35.2028 4.2148L35.36 0V15.5447C35.36 25.185 27.4444 33 17.68 33C7.91561 33 0 25.185 0 15.5447V0Z" fill="url(#paint8_linear)"/>
</mask>
<g mask="url(#mask0)">
<path id="Path 4_2" opacity="0.5" fill-rule="evenodd" clip-rule="evenodd" d="M13.3352 13.4176L12.9774 15.9214L12.4869 20.1439L11.1425 21.6313L10.8472 23.9069L11.5983 27.0078L11.5926 29.2369L13.6093 31.2858L15.493 32.602L16.7269 33.7802L19.142 34.9951L21.2237 36.3818L22.9979 37.2742L21.5601 36.2799C20.7137 35.6946 19.9292 35.0265 19.2186 34.2857L18.7646 33.8125C18.3583 33.3891 17.8757 33.0441 17.3415 32.7951C16.8229 32.5534 16.4195 32.1226 16.2161 31.5932L16.0131 31.0646C15.6692 30.1696 15.493 29.2203 15.493 28.2631L15.493 19.4752L14.7309 18.877L14.0364 18.0915L13.8628 17.7925L13.8214 17.708C13.7615 17.5862 13.7058 17.4624 13.6542 17.3369C13.6027 17.2115 13.5578 17.0835 13.5198 16.9534L13.5142 16.9343C13.4726 16.7916 13.44 16.6465 13.4168 16.4997L13.3968 16.3737L13.3352 15.8613L13.3352 13.4176Z" fill="url(#paint9_linear)"/>
</g>
</g>
<path id="Rectangle Copy 3_3" fill-rule="evenodd" clip-rule="evenodd" d="M0 0H4.41438C9.35059 0 13.3522 3.95072 13.3522 8.82418V15.7809C13.3522 18.1407 15.2898 20.0537 17.68 20.0537C20.4898 20.0537 23.2606 19.4044 25.7708 18.1579L25.9658 18.061C28.5968 16.7544 30.8439 14.8029 32.4921 12.3933L32.5075 12.3708C34.1604 9.95431 35.0942 7.12876 35.2028 4.2148L35.36 0V15.5447C35.36 25.185 27.4444 33 17.68 33C7.91561 33 0 25.185 0 15.5447V0Z" fill="url(#paint10_linear)"/>
<path id="Rectangle Copy 4" fill-rule="evenodd" clip-rule="evenodd" d="M0 0H4.41438C9.3506 0 13.3522 3.95072 13.3522 8.82418V10.9597V28.7272C13.3522 31.087 15.2898 33 17.68 33C7.91562 33 0 25.185 0 15.5447V0Z" fill="url(#paint11_linear)"/>
<path id="Rectangle Copy 4_2" fill-rule="evenodd" clip-rule="evenodd" d="M0 0H4.41438C9.3506 0 13.3522 3.95072 13.3522 8.82418V10.9597V28.7272C13.3522 31.087 15.2898 33 17.68 33C7.91562 33 0 25.185 0 15.5447V0Z" fill="url(#paint12_linear)"/>
</g>
</g>
<defs>
<linearGradient id="paint0_linear" x1="17.68" y1="0" x2="17.68" y2="33" gradientUnits="userSpaceOnUse">
<stop stop-color="#DEEDFF"/>
<stop offset="1" stop-color="#B2D4FD"/>
</linearGradient>
<linearGradient id="paint1_linear" x1="32.0043" y1="1.75656" x2="30.9757" y2="20.7371" gradientUnits="userSpaceOnUse">
<stop stop-color="#00D6D9"/>
<stop offset="1" stop-color="#455CDA"/>
</linearGradient>
<linearGradient id="paint2_linear" x1="22.8708" y1="1.75656" x2="29.9573" y2="11.9966" gradientUnits="userSpaceOnUse">
<stop stop-color="#00D6D9"/>
<stop offset="1" stop-color="#04CFD9" stop-opacity="0"/>
</linearGradient>
<linearGradient id="paint3_linear" x1="22.931" y1="16.5" x2="25.2362" y2="19.5271" gradientUnits="userSpaceOnUse">
<stop stop-color="#3F66DA" stop-opacity="0"/>
<stop offset="1" stop-color="#2E2EAE"/>
</linearGradient>
<linearGradient id="paint4_linear" x1="24.8937" y1="13.3059" x2="27.1771" y2="19.1539" gradientUnits="userSpaceOnUse">
<stop stop-color="#2D41B3" stop-opacity="0"/>
<stop offset="1" stop-color="#141E62"/>
</linearGradient>
<linearGradient id="paint5_linear" x1="15.3553" y1="7.8919" x2="28.5471" y2="23.0918" gradientUnits="userSpaceOnUse">
<stop stop-color="#3F66DA" stop-opacity="0"/>
<stop offset="1" stop-color="#2436C1"/>
</linearGradient>
<linearGradient id="paint6_linear" x1="43.3468" y1="40.5914" x2="31.3119" y2="9.34287" gradientUnits="userSpaceOnUse">
<stop stop-color="#706AE1"/>
<stop offset="1" stop-color="#4352ED"/>
</linearGradient>
<linearGradient id="paint7_linear" x1="67.4184" y1="1.75656" x2="37.8858" y2="38.7384" gradientUnits="userSpaceOnUse">
<stop stop-color="#00D6D9"/>
<stop offset="1" stop-color="#0FC4DD" stop-opacity="0"/>
</linearGradient>
<linearGradient id="paint8_linear" x1="24.7435" y1="23.2722" x2="14.1909" y2="30.3859" gradientUnits="userSpaceOnUse">
<stop stop-color="#3F4DDA" stop-opacity="0"/>
<stop offset="1" stop-color="#2736A4"/>
</linearGradient>
<linearGradient id="paint9_linear" x1="19.1947" y1="23.3537" x2="13.0622" y2="23.3826" gradientUnits="userSpaceOnUse">
<stop stop-color="#2D41B3" stop-opacity="0"/>
<stop offset="1" stop-color="#141E62"/>
</linearGradient>
<linearGradient id="paint10_linear" x1="24.7435" y1="23.2722" x2="14.1909" y2="30.3859" gradientUnits="userSpaceOnUse">
<stop stop-color="#3F4DDA" stop-opacity="0"/>
<stop offset="1" stop-color="#2736A4"/>
</linearGradient>
<linearGradient id="paint11_linear" x1="6.79858" y1="1.44448e-07" x2="17.0045" y2="23.042" gradientUnits="userSpaceOnUse">
<stop stop-color="#00D6D9"/>
<stop offset="1" stop-color="#5272EE"/>
</linearGradient>
<linearGradient id="paint12_linear" x1="4.91662" y1="8.0064" x2="12.8211" y2="20.2053" gradientUnits="userSpaceOnUse">
<stop stop-color="#00D6D9"/>
<stop offset="1" stop-color="#0FC4DD" stop-opacity="0"/>
</linearGradient>
</defs>
</svg>
