<svg width="51" height="28" viewBox="0 0 51 28" fill="none" xmlns="http://www.w3.org/2000/svg">
<g clip-path="url(#clip0)">
<path d="M47.5486 -9.37301e-06H3.09826C2.27412 0.00698994 1.48611 0.339296 0.905829 0.924552C0.325543 1.50981 -2.97196e-05 2.30062 2.03479e-09 3.12479L2.03479e-09 16.6258C2.03479e-09 17.4545 0.329219 18.2493 0.915231 18.8353C1.50124 19.4213 2.29605 19.7506 3.12479 19.7506H30.8897C31.0868 19.7506 31.2758 19.6723 31.4151 19.5329C31.5545 19.3936 31.6327 19.2046 31.6327 19.0075C31.6327 18.8104 31.5545 18.6214 31.4151 18.4821C31.2758 18.3427 31.0868 18.2645 30.8897 18.2645H3.12479C2.69019 18.2645 2.27338 18.0918 1.96606 17.7845C1.65875 17.4772 1.4861 17.0604 1.4861 16.6258V3.12479C1.4861 2.69018 1.65875 2.27337 1.96606 1.96605C2.27338 1.65874 2.69019 1.48609 3.12479 1.48609H47.5752C47.7904 1.48609 48.0035 1.52848 48.2023 1.61083C48.4011 1.69318 48.5817 1.81389 48.7339 1.96605C48.8861 2.11822 49.0068 2.29887 49.0891 2.49768C49.1715 2.6965 49.2139 2.90959 49.2139 3.12479V8.93651C49.2139 9.13358 49.2921 9.32257 49.4315 9.46192C49.5708 9.60127 49.7598 9.67956 49.9569 9.67956C50.154 9.67956 50.343 9.60127 50.4823 9.46192C50.6217 9.32257 50.7 9.13358 50.7 8.93651V3.12479C50.7 2.71219 50.6183 2.30367 50.4596 1.92282C50.3009 1.54196 50.0684 1.1963 49.7754 0.905786C49.4824 0.615273 49.1348 0.385657 48.7526 0.230191C48.3704 0.0747252 47.9612 -0.00351338 47.5486 -9.37301e-06Z" fill="#9EB0C1"/>
<path d="M48.159 15.3387V14.3768C48.159 12.7052 47.495 11.1021 46.313 9.9201C45.131 8.73813 43.5279 8.0741 41.8563 8.0741C40.1848 8.0741 38.5817 8.73813 37.3997 9.9201C36.2177 11.1021 35.5537 12.7052 35.5537 14.3768V15.3387C35.0918 15.4953 34.6905 15.7926 34.4061 16.1888C34.1217 16.585 33.9686 17.0603 33.968 17.548V25.5093C33.9698 26.1263 34.2157 26.7176 34.652 27.1539C35.0884 27.5903 35.6797 27.8362 36.2967 27.8379H47.4159C47.7249 27.8388 48.0309 27.7784 48.3163 27.6602C48.6017 27.542 48.8608 27.3683 49.0786 27.1493C49.2965 26.9302 49.4686 26.6701 49.5852 26.3841C49.7018 26.098 49.7605 25.7916 49.7579 25.4827V17.5215C49.7509 17.0367 49.5933 16.5661 49.3067 16.175C49.0202 15.7838 48.6191 15.4916 48.159 15.3387ZM41.863 9.56683C43.1381 9.56859 44.3605 10.0759 45.2622 10.9776C46.1638 11.8792 46.6711 13.1016 46.6729 14.3768V15.2193H37.053V14.3768C37.0548 13.1016 37.5621 11.8792 38.4638 10.9776C39.3654 10.0759 40.5878 9.56859 41.863 9.56683ZM48.2585 25.4894C48.2585 25.7128 48.1697 25.9271 48.0117 26.0851C47.8537 26.2432 47.6394 26.3319 47.4159 26.3319H36.31C36.0865 26.3319 35.8722 26.2432 35.7142 26.0851C35.5562 25.9271 35.4674 25.7128 35.4674 25.4894V17.5281C35.4674 17.3046 35.5562 17.0903 35.7142 16.9323C35.8722 16.7743 36.0865 16.6855 36.31 16.6855H47.4159C47.6394 16.6855 47.8537 16.7743 48.0117 16.9323C48.1697 17.0903 48.2585 17.3046 48.2585 17.5281V25.4894Z" fill="#9EB0C1"/>
<path d="M12.0678 7.91491C12.019 7.83039 11.954 7.75632 11.8766 7.69691C11.7992 7.6375 11.7108 7.59392 11.6166 7.56866C11.5223 7.54341 11.424 7.53696 11.3272 7.5497C11.2305 7.56244 11.1372 7.5941 11.0527 7.6429L9.42063 8.58498V6.70082C9.42063 6.50375 9.34235 6.31475 9.203 6.1754C9.06365 6.03605 8.87465 5.95776 8.67758 5.95776C8.48051 5.95776 8.29152 6.03605 8.15217 6.1754C8.01282 6.31475 7.93453 6.50375 7.93453 6.70082V8.58498L6.30247 7.6429C6.21796 7.59411 6.12467 7.56244 6.02792 7.54971C5.93117 7.53697 5.83287 7.54342 5.73861 7.56868C5.64435 7.59394 5.55599 7.63751 5.47858 7.69692C5.40116 7.75632 5.3362 7.8304 5.28741 7.91491C5.23862 7.99942 5.20696 8.09271 5.19422 8.18946C5.18149 8.28621 5.18793 8.38452 5.21319 8.47877C5.23845 8.57303 5.28203 8.66139 5.34143 8.73881C5.40084 8.81622 5.47491 8.88118 5.55942 8.92997L7.19148 9.87205L5.55942 10.8141C5.38875 10.9127 5.2642 11.075 5.21319 11.2653C5.16218 11.4557 5.18888 11.6585 5.28741 11.8292C5.38595 11.9999 5.54825 12.1244 5.73861 12.1754C5.92897 12.2264 6.1318 12.1997 6.30247 12.1012L7.96107 11.1591V13.0433C7.96107 13.2404 8.03936 13.4294 8.1787 13.5687C8.31805 13.7081 8.50705 13.7863 8.70412 13.7863C8.90119 13.7863 9.09019 13.7081 9.22954 13.5687C9.36889 13.4294 9.44717 13.2404 9.44717 13.0433V11.1591L11.0792 12.1012C11.2499 12.1997 11.4527 12.2264 11.6431 12.1754C11.8335 12.1244 11.9958 11.9999 12.0943 11.8292C12.1928 11.6585 12.2195 11.4557 12.1685 11.2653C12.1175 11.075 11.993 10.9127 11.8223 10.8141L10.1902 9.87205L11.8223 8.92997C11.9885 8.82708 12.1075 8.66284 12.1534 8.47283C12.1994 8.28283 12.1686 8.08238 12.0678 7.91491Z" fill="#9EB0C1"/>
<path d="M21.5883 7.91491C21.5395 7.82951 21.4743 7.75465 21.3963 7.69466C21.3184 7.63468 21.2293 7.59076 21.1343 7.56546C21.0392 7.54016 20.9401 7.53397 20.8427 7.54726C20.7452 7.56056 20.6514 7.59306 20.5666 7.6429L18.9346 8.58498V6.70082C18.9346 6.50375 18.8563 6.31475 18.7169 6.1754C18.5776 6.03605 18.3886 5.95776 18.1915 5.95776C17.9944 5.95776 17.8054 6.03605 17.6661 6.1754C17.5267 6.31475 17.4484 6.50375 17.4484 6.70082V8.58498L15.8164 7.6429C15.6457 7.54436 15.4429 7.51766 15.2525 7.56868C15.0622 7.61969 14.8999 7.74423 14.8013 7.91491C14.7028 8.08558 14.6761 8.28841 14.7271 8.47877C14.7781 8.66913 14.9027 8.83143 15.0733 8.92997L16.7054 9.87205L15.0733 10.8141C14.9888 10.8629 14.9148 10.9279 14.8553 11.0053C14.7959 11.0827 14.7524 11.1711 14.7271 11.2653C14.7018 11.3596 14.6954 11.4579 14.7081 11.5546C14.7209 11.6514 14.7525 11.7447 14.8013 11.8292C14.8501 11.9137 14.9151 11.9878 14.9925 12.0472C15.0699 12.1066 15.1583 12.1502 15.2525 12.1754C15.3468 12.2007 15.4451 12.2071 15.5418 12.1944C15.6386 12.1817 15.7319 12.15 15.8164 12.1012L17.4484 11.1591V13.0433C17.4484 13.1409 17.4677 13.2375 17.505 13.3276C17.5424 13.4178 17.5971 13.4997 17.6661 13.5687C17.7351 13.6377 17.817 13.6924 17.9071 13.7298C17.9973 13.7671 18.0939 13.7863 18.1915 13.7863C18.2891 13.7863 18.3857 13.7671 18.4759 13.7298C18.566 13.6924 18.6479 13.6377 18.7169 13.5687C18.7859 13.4997 18.8406 13.4178 18.878 13.3276C18.9153 13.2375 18.9346 13.1409 18.9346 13.0433V11.1591L20.5666 12.1012C20.7373 12.1997 20.9401 12.2264 21.1305 12.1754C21.3208 12.1244 21.4831 11.9999 21.5817 11.8292C21.6802 11.6585 21.7069 11.4557 21.6559 11.2653C21.6049 11.075 21.4803 10.9127 21.3097 10.8141L19.6776 9.87205L21.3097 8.92997C21.3947 8.88174 21.4694 8.81718 21.5295 8.74002C21.5896 8.66285 21.6338 8.57459 21.6597 8.48029C21.6856 8.38598 21.6926 8.2875 21.6804 8.19048C21.6681 8.09346 21.6368 7.99981 21.5883 7.91491Z" fill="#9EB0C1"/>
<path d="M31.1084 7.91491C31.0596 7.83039 30.9946 7.75632 30.9172 7.69691C30.8398 7.6375 30.7514 7.59392 30.6572 7.56866C30.5629 7.54341 30.4646 7.53696 30.3679 7.5497C30.2711 7.56244 30.1778 7.5941 30.0933 7.6429L28.4613 8.58498V6.70082C28.4613 6.50375 28.383 6.31475 28.2436 6.1754C28.1043 6.03605 27.9153 5.95776 27.7182 5.95776C27.5211 5.95776 27.3321 6.03605 27.1928 6.1754C27.0534 6.31475 26.9752 6.50375 26.9752 6.70082V8.58498L25.3431 7.6429C25.2586 7.59411 25.1653 7.56244 25.0686 7.54971C24.9718 7.53697 24.8735 7.54342 24.7792 7.56868C24.685 7.59394 24.5966 7.63751 24.5192 7.69692C24.4418 7.75632 24.3768 7.8304 24.328 7.91491C24.2793 7.99942 24.2476 8.09271 24.2349 8.18946C24.2221 8.28621 24.2286 8.38452 24.2538 8.47877C24.2791 8.57303 24.3227 8.66139 24.3821 8.73881C24.4415 8.81622 24.5155 8.88118 24.6001 8.92997L26.2321 9.87205L24.5934 10.8141C24.5089 10.8629 24.4348 10.9279 24.3754 11.0053C24.316 11.0827 24.2724 11.1711 24.2472 11.2653C24.2219 11.3596 24.2155 11.4579 24.2282 11.5546C24.241 11.6514 24.2726 11.7447 24.3214 11.8292C24.3702 11.9137 24.4352 11.9878 24.5126 12.0472C24.59 12.1066 24.6783 12.1502 24.7726 12.1754C24.8669 12.2007 24.9652 12.2071 25.0619 12.1944C25.1587 12.1817 25.252 12.15 25.3365 12.1012L26.9685 11.1591V13.0433C26.9685 13.2404 27.0468 13.4294 27.1862 13.5687C27.3255 13.7081 27.5145 13.7863 27.7116 13.7863C27.9086 13.7863 28.0976 13.7081 28.237 13.5687C28.3763 13.4294 28.4546 13.2404 28.4546 13.0433V11.1591L30.0867 12.1012C30.2574 12.1997 30.4602 12.2264 30.6506 12.1754C30.8409 12.1244 31.0032 11.9999 31.1017 11.8292C31.2003 11.6585 31.227 11.4557 31.176 11.2653C31.125 11.075 31.0004 10.9127 30.8297 10.8141L29.191 9.87205L30.8231 8.92997C30.9087 8.88229 30.9841 8.81815 31.0448 8.74124C31.1055 8.66432 31.1505 8.57615 31.177 8.4818C31.2035 8.38746 31.2111 8.2888 31.1993 8.1915C31.1875 8.09421 31.1566 8.00021 31.1084 7.91491Z" fill="#9EB0C1"/>
<path d="M41.8629 18.3906C41.3105 18.3921 40.7766 18.59 40.3566 18.9488C39.9366 19.3077 39.6578 19.8041 39.5701 20.3496C39.4824 20.895 39.5914 21.4538 39.8778 21.9262C40.1641 22.3987 40.609 22.7539 41.1331 22.9286V23.8839C41.1331 23.9815 41.1523 24.0781 41.1897 24.1683C41.227 24.2584 41.2817 24.3403 41.3507 24.4093C41.4197 24.4783 41.5017 24.5331 41.5918 24.5704C41.682 24.6077 41.7786 24.627 41.8762 24.627C41.9737 24.627 42.0704 24.6077 42.1605 24.5704C42.2507 24.5331 42.3326 24.4783 42.4016 24.4093C42.4706 24.3403 42.5253 24.2584 42.5627 24.1683C42.6 24.0781 42.6192 23.9815 42.6192 23.8839V22.9286C43.1444 22.7536 43.5901 22.3972 43.8763 21.9234C44.1625 21.4496 44.2706 20.8893 44.1812 20.343C44.0917 19.7967 43.8106 19.3002 43.3882 18.9424C42.9658 18.5846 42.4297 18.389 41.8762 18.3906H41.8629ZM41.8629 21.5619C41.6962 21.5619 41.5333 21.5125 41.3948 21.4199C41.2562 21.3273 41.1482 21.1957 41.0845 21.0417C41.0207 20.8878 41.004 20.7184 41.0365 20.5549C41.069 20.3915 41.1493 20.2414 41.2671 20.1235C41.3849 20.0057 41.5351 19.9254 41.6985 19.8929C41.862 19.8604 42.0314 19.8771 42.1853 19.9409C42.3393 20.0046 42.4709 20.1126 42.5635 20.2512C42.656 20.3898 42.7055 20.5527 42.7055 20.7193C42.7055 20.83 42.6837 20.9395 42.6413 21.0417C42.599 21.144 42.5369 21.2368 42.4587 21.3151C42.3804 21.3933 42.2876 21.4554 42.1853 21.4977C42.0831 21.5401 41.9735 21.5619 41.8629 21.5619Z" fill="#9EB0C1"/>
</g>
<defs>
<clipPath id="clip0">
<rect width="50.6734" height="27.8113" fill="white"/>
</clipPath>
</defs>
</svg>
