<svg width="66" height="44" viewBox="0 0 66 44" fill="none" xmlns="http://www.w3.org/2000/svg">
<g clip-path="url(#clip0)">
<path d="M51.4235 34.3395C50.7164 34.3364 50.0252 34.129 49.4332 33.7424L37.8827 26.2123C37.7725 26.1533 37.6757 26.0721 37.5985 25.9737C37.5213 25.8753 37.4654 25.7619 37.4344 25.6408C37.4034 25.5196 37.3978 25.3934 37.4182 25.27C37.4385 25.1466 37.4843 25.0288 37.5526 24.924C37.6209 24.8193 37.7102 24.7299 37.8149 24.6615C37.9196 24.5931 38.0374 24.5472 38.1607 24.5267C38.2841 24.5062 38.4104 24.5116 38.5316 24.5426C38.6527 24.5735 38.7661 24.6293 38.8646 24.7063L50.4217 32.2364C50.6272 32.3822 50.8601 32.4847 51.1064 32.5376C51.3527 32.5906 51.6072 32.5929 51.8544 32.5444C52.1016 32.4959 52.3364 32.3976 52.5444 32.2555C52.7525 32.1135 52.9295 31.9305 53.0646 31.7179C53.1997 31.5053 53.2902 31.2674 53.3305 31.0188C53.3708 30.7701 53.3601 30.5158 53.2991 30.2714C53.2381 30.027 53.1279 29.7975 52.9754 29.597C52.8229 29.3965 52.6313 29.229 52.412 29.1049L36.4099 19.0273C35.7007 18.5883 34.8821 18.3584 34.048 18.3639H26.5379V20.2945C26.5379 21.2147 26.1724 22.0973 25.5216 22.748C24.8709 23.3987 23.9884 23.7643 23.0681 23.7643C22.1479 23.7643 21.2653 23.3987 20.6146 22.748C19.9639 22.0973 19.5984 21.2147 19.5984 20.2945V14.5358C19.5984 14.0932 19.7228 13.6594 19.9574 13.2841C20.192 12.9087 20.5273 12.6068 20.9252 12.4128L27.5331 9.28803C27.6534 9.23126 27.7848 9.20181 27.9179 9.20178H45.8639C46.089 9.22114 46.2986 9.32423 46.4514 9.49068C46.6041 9.65713 46.6889 9.87482 46.6889 10.1007C46.6889 10.3267 46.6041 10.5444 46.4514 10.7108C46.2986 10.8773 46.089 10.9803 45.8639 10.9997H28.1169L21.728 14.0051C21.6331 14.0492 21.5528 14.1194 21.4964 14.2075C21.44 14.2957 21.4099 14.398 21.4095 14.5027V20.248C21.4607 20.6518 21.6574 21.023 21.9628 21.2921C22.2681 21.5612 22.6611 21.7097 23.0681 21.7097C23.4751 21.7097 23.8682 21.5612 24.1735 21.2921C24.4789 21.023 24.6756 20.6518 24.7267 20.248V17.4483C24.7267 17.209 24.8218 16.9795 24.991 16.8103C25.1602 16.6411 25.3897 16.546 25.629 16.546H34.0414C35.2157 16.5477 36.3656 16.8811 37.3586 17.508L53.374 27.579C54.0468 28.0003 54.5642 28.6292 54.848 29.3706C55.1317 30.1119 55.1665 30.9255 54.9469 31.6884C54.7273 32.4512 54.2654 33.1219 53.6309 33.599C52.9965 34.0761 52.224 34.3337 51.4301 34.3328L51.4235 34.3395Z" fill="#9EB0C1"/>
<path d="M44.7427 36.9535C43.9825 36.9503 43.2406 36.7192 42.6131 36.2901L34.4992 30.8234C34.3234 30.6818 34.2071 30.4794 34.1732 30.2563C34.1392 30.0331 34.1902 29.8053 34.316 29.6179C34.4418 29.4304 34.6333 29.297 34.8526 29.2438C35.072 29.1906 35.3034 29.2216 35.501 29.3306L43.648 34.804C43.87 34.9586 44.1207 35.0673 44.3853 35.1237C44.6499 35.1801 44.9231 35.183 45.1889 35.1323C45.4546 35.0816 45.7076 34.9782 45.9328 34.8284C46.1581 34.6785 46.3511 34.4852 46.5006 34.2597C46.65 34.0341 46.7529 33.781 46.8032 33.5152C46.8534 33.2493 46.85 32.9761 46.7932 32.7116C46.7363 32.4471 46.6272 32.1966 46.4722 31.9749C46.3171 31.7532 46.1194 31.5647 45.8905 31.4205L38.4799 26.5906C38.3696 26.5316 38.2728 26.4503 38.1956 26.352C38.1185 26.2536 38.0626 26.1402 38.0315 26.0191C38.0005 25.8979 37.995 25.7716 38.0153 25.6483C38.0357 25.5249 38.0815 25.4071 38.1497 25.3023C38.218 25.1976 38.3074 25.1081 38.4121 25.0397C38.5168 24.9714 38.6345 24.9255 38.7579 24.905C38.8812 24.8845 39.0075 24.8899 39.1287 24.9208C39.2499 24.9518 39.3633 25.0075 39.4617 25.0846L46.8657 29.9145C47.5565 30.3685 48.082 31.0335 48.364 31.8105C48.6461 32.5875 48.6695 33.4348 48.4308 34.2262C48.1921 35.0176 47.7041 35.7106 47.0395 36.2021C46.3749 36.6936 45.5693 36.9571 44.7427 36.9535Z" fill="#9EB0C1"/>
<path d="M39.1434 40.1778C38.419 40.1793 37.7096 39.972 37.1 39.5807L31.5006 35.9782C31.3 35.8445 31.1608 35.6366 31.1135 35.4002C31.0662 35.1638 31.1148 34.9183 31.2485 34.7177C31.3822 34.5171 31.5902 34.3779 31.8265 34.3306C32.0629 34.2833 32.3084 34.3319 32.509 34.4656L38.1084 38.0681C38.53 38.336 39.0369 38.4356 39.5285 38.3471C40.0201 38.2586 40.4605 37.9885 40.7622 37.5904C40.9263 37.3738 41.0443 37.126 41.109 36.8621C41.1737 36.5982 41.1836 36.3239 41.1382 36.056C41.0929 35.7881 40.9931 35.5323 40.8452 35.3045C40.6972 35.0766 40.5041 34.8814 40.2779 34.731L36.629 32.2762C36.4532 32.1347 36.3368 31.9323 36.3029 31.7091C36.269 31.486 36.3199 31.2582 36.4457 31.0707C36.5715 30.8833 36.763 30.7498 36.9824 30.6967C37.2018 30.6435 37.4331 30.6745 37.6308 30.7835L41.2797 33.2382C41.7068 33.5257 42.071 33.8971 42.35 34.3298C42.629 34.7625 42.8171 35.2474 42.9027 35.7551C42.9883 36.2628 42.9698 36.7826 42.8482 37.2829C42.7265 37.7832 42.5044 38.2535 42.1952 38.6652C41.8392 39.1373 41.378 39.5198 40.8482 39.7824C40.3184 40.045 39.7347 40.1804 39.1434 40.1778Z" fill="#9EB0C1"/>
<path d="M32.3166 42.4601C31.6373 42.4603 30.9713 42.272 30.3927 41.916L29.7823 41.5445C29.5989 41.4108 29.4726 41.2128 29.4287 40.9901C29.3847 40.7674 29.4264 40.5363 29.5452 40.343C29.6641 40.1496 29.8515 40.0081 30.0701 39.9468C30.2886 39.8854 30.5223 39.9087 30.7244 40.012L31.3281 40.3835C31.6424 40.5799 32.0075 40.6796 32.378 40.6702C32.7485 40.6608 33.108 40.5428 33.412 40.3307C33.7159 40.1187 33.9509 39.822 34.0876 39.4775C34.2243 39.133 34.2567 38.756 34.1809 38.3932C34.1348 38.1407 34.0375 37.9003 33.8948 37.6869C33.7522 37.4736 33.5673 37.2917 33.3516 37.1526L31.9783 36.2702C31.8695 36.2107 31.774 36.1295 31.698 36.0315C31.622 35.9336 31.5669 35.821 31.5364 35.7008C31.5058 35.5806 31.5003 35.4554 31.5203 35.333C31.5403 35.2106 31.5853 35.0936 31.6525 34.9894C31.7197 34.8852 31.8076 34.7959 31.9109 34.7272C32.0141 34.6585 32.1304 34.6118 32.2525 34.59C32.3746 34.5683 32.4999 34.5719 32.6205 34.6008C32.7411 34.6296 32.8545 34.6829 32.9536 34.7575L34.3269 35.6399C34.9979 36.0703 35.5114 36.7065 35.7905 37.4532C36.0696 38.1999 36.0994 39.0169 35.8752 39.7819C35.6511 40.5469 35.1852 41.2187 34.5473 41.6967C33.9093 42.1748 33.1337 42.4333 32.3366 42.4335L32.3166 42.4601Z" fill="#9EB0C1"/>
<path d="M27.2013 43.2495C26.5402 43.2483 25.8936 43.056 25.3392 42.6959C24.7848 42.3358 24.3462 41.8231 24.0764 41.2196C23.8065 40.6161 23.7168 39.9475 23.8181 39.2942C23.9193 38.6409 24.2072 38.0308 24.6471 37.5373L24.9323 37.2255C25.5173 36.57 26.3318 36.1646 27.2073 36.0929C28.0829 36.0213 28.9524 36.289 29.6361 36.8407L29.0788 37.5439L29.6428 36.8407C30.008 37.1347 30.3091 37.5005 30.5275 37.9154C30.7458 38.3304 30.8767 38.7857 30.9122 39.2533C30.9476 39.7209 30.8868 40.1907 30.7335 40.6339C30.5802 41.077 30.3377 41.484 30.0209 41.8297L29.7356 42.1415C29.4135 42.4923 29.0217 42.7721 28.5854 42.9628C28.149 43.1536 27.6776 43.2513 27.2013 43.2495ZM27.4799 37.8823C27.2517 37.8827 27.0261 37.9314 26.818 38.0251C26.6099 38.1189 26.424 38.2556 26.2725 38.4263L25.9872 38.7381C25.8402 38.903 25.7282 39.0961 25.658 39.3056C25.5878 39.5151 25.5609 39.7367 25.5789 39.9569C25.5969 40.1771 25.6594 40.3914 25.7627 40.5867C25.8659 40.7821 26.0078 40.9544 26.1796 41.0933C26.5021 41.3525 26.911 41.4796 27.3236 41.4488C27.7362 41.418 28.1217 41.2317 28.4021 40.9274L28.6874 40.6156C28.8373 40.4513 28.952 40.258 29.0245 40.0477C29.097 39.8374 29.1258 39.6145 29.109 39.3927C29.0922 39.1709 29.0303 38.9549 28.927 38.7579C28.8237 38.5609 28.6812 38.3871 28.5083 38.2471C28.2096 38.0068 27.8367 37.8778 27.4534 37.8823H27.4799Z" fill="#9EB0C1"/>
<path d="M22.4578 40.9143C21.7967 40.9114 21.1505 40.7179 20.5966 40.3569C20.0427 39.9959 19.6047 39.4829 19.3351 38.8792C19.0655 38.2756 18.9757 37.607 19.0765 36.9536C19.1774 36.3002 19.4645 35.6898 19.9036 35.1955L23.4397 31.2148C24.0555 30.5286 24.9188 30.1151 25.8395 30.0654C26.7602 30.0156 27.6629 30.3336 28.3491 30.9495C29.0354 31.5653 29.4488 32.4285 29.4986 33.3492C29.5484 34.2699 29.2304 35.1727 28.6145 35.8589L25.032 39.8395C24.7021 40.189 24.3025 40.4653 23.8591 40.6504C23.4156 40.8356 22.9382 40.9255 22.4578 40.9143ZM25.9939 31.8451C25.7615 31.8452 25.5317 31.895 25.32 31.9911C25.1084 32.0872 24.9197 32.2275 24.7666 32.4024L21.2305 36.383C20.941 36.7077 20.7924 37.134 20.8173 37.5682C20.8421 38.0024 21.0385 38.409 21.3631 38.6984C21.6878 38.9879 22.1141 39.1365 22.5483 39.1116C22.9825 39.0867 23.3891 38.8904 23.6785 38.5657L27.2611 34.5851C27.4091 34.4205 27.5221 34.2275 27.5935 34.018C27.6648 33.8085 27.693 33.5866 27.6762 33.3659C27.6595 33.1452 27.5982 32.9302 27.4961 32.7338C27.3939 32.5374 27.2531 32.3637 27.082 32.2233C26.7753 31.9728 26.3899 31.8389 25.9939 31.8451Z" fill="#9EB0C1"/>
<path d="M18.9616 37.1525C18.3012 37.1522 17.6543 36.9648 17.096 36.612C16.5376 36.2592 16.0906 35.7555 15.8067 35.1592C15.5227 34.5629 15.4135 33.8984 15.4917 33.2426C15.5698 32.5868 15.8321 31.9665 16.2481 31.4536L17.449 29.9874C17.7414 29.6105 18.107 29.2967 18.5239 29.0649C18.9407 28.833 19.4002 28.6879 19.8746 28.6382C20.349 28.5886 20.8285 28.6354 21.2844 28.7759C21.7402 28.9164 22.1629 29.1477 22.527 29.4558C22.8911 29.764 23.1891 30.1426 23.4031 30.5689C23.6171 30.9952 23.7426 31.4604 23.7721 31.9365C23.8016 32.4126 23.7344 32.8897 23.5747 33.3391C23.415 33.7886 23.166 34.2011 22.8427 34.5518L21.5822 35.9849C21.2531 36.3541 20.8492 36.6491 20.3974 36.8504C19.9456 37.0517 19.4562 37.1547 18.9616 37.1525ZM20.2022 30.4717C19.9458 30.4775 19.6939 30.54 19.4645 30.6547C19.2351 30.7694 19.0339 30.9335 18.8754 31.1351L17.648 32.6013C17.3919 32.948 17.2773 33.3791 17.3272 33.8072C17.3772 34.2354 17.5881 34.6285 17.9171 34.9069C18.2461 35.1853 18.6687 35.3282 19.0992 35.3066C19.5297 35.285 19.9359 35.1006 20.2354 34.7907L21.4959 33.3576C21.7188 33.106 21.8636 32.7949 21.9127 32.4624C21.9617 32.1298 21.913 31.7902 21.7723 31.4849C21.6316 31.1796 21.4051 30.9219 21.1204 30.7431C20.8357 30.5644 20.5052 30.4724 20.1691 30.4783L20.2022 30.4717Z" fill="#9EB0C1"/>
<path d="M15.4387 33.3842C14.8166 33.374 14.2099 33.189 13.688 32.8504C13.166 32.5117 12.7498 32.0332 12.4869 31.4693C12.224 30.9054 12.1249 30.2789 12.2011 29.6614C12.2773 29.0439 12.5255 28.4603 12.9176 27.9772L13.4616 27.3138C14.022 26.6713 14.8107 26.2725 15.6603 26.202C16.5099 26.1315 17.3535 26.3948 18.0122 26.9361C18.6708 27.4773 19.0926 28.2539 19.1881 29.1011C19.2836 29.9482 19.0453 30.7992 18.5236 31.4735L17.9995 32.137C17.6947 32.5249 17.3059 32.8386 16.8623 33.0547C16.4188 33.2707 15.932 33.3834 15.4387 33.3842ZM15.9628 27.9706C15.7479 27.9704 15.5357 28.0172 15.3408 28.1077C15.146 28.1983 14.9733 28.3304 14.8349 28.4947L14.2909 29.1581C14.1477 29.306 14.0368 29.482 13.9652 29.675C13.8936 29.868 13.8628 30.0738 13.8749 30.2793C13.887 30.4848 13.9417 30.6855 14.0355 30.8688C14.1292 31.0521 14.26 31.2139 14.4196 31.3439C14.5792 31.474 14.764 31.5695 14.9624 31.6243C15.1608 31.6792 15.3685 31.6922 15.5722 31.6626C15.7759 31.633 15.9713 31.5614 16.1458 31.4523C16.3204 31.3433 16.4705 31.1991 16.5864 31.029L17.1105 30.3656C17.282 30.1479 17.3889 29.8865 17.4191 29.6111C17.4492 29.3356 17.4014 29.0572 17.2811 28.8076C17.1608 28.558 16.9728 28.3472 16.7386 28.1992C16.5043 28.0513 16.2332 27.972 15.9561 27.9706H15.9628Z" fill="#9EB0C1"/>
<path d="M14.145 28.8132C14.0211 28.8151 13.8982 28.7914 13.784 28.7434C13.6699 28.6955 13.5668 28.6243 13.4815 28.5346L8.75786 23.6118C8.61376 23.4609 8.52641 23.2648 8.51068 23.0567C8.49496 22.8486 8.55183 22.6416 8.67161 22.4707L17.2101 10.3961C17.2893 10.2818 17.3942 10.1875 17.5162 10.1207C17.6383 10.0539 17.7743 10.0165 17.9133 10.0114H26.2527C26.4778 10.0307 26.6875 10.1338 26.8402 10.3002C26.993 10.4667 27.0777 10.6844 27.0777 10.9103C27.0777 11.1362 26.993 11.3539 26.8402 11.5204C26.6875 11.6868 26.4778 11.7899 26.2527 11.8093H18.4043L10.569 22.902L14.7951 27.2939C14.918 27.4223 15.0002 27.5842 15.0314 27.7592C15.0626 27.9341 15.0415 28.1144 14.9706 28.2774C14.8997 28.4404 14.7823 28.5788 14.6331 28.6753C14.4838 28.7718 14.3094 28.8221 14.1317 28.8198L14.145 28.8132Z" fill="#9EB0C1"/>
<path d="M57.1956 26.239C56.7058 26.2383 56.2238 26.1169 55.7921 25.8854C55.3605 25.654 54.9926 25.3197 54.721 24.9121C52.5515 21.7011 47.9273 14.7283 45.3598 10.8539C44.9417 10.2228 44.7777 9.45699 44.9008 8.71005C45.0238 7.96312 45.4248 7.29036 46.0233 6.8268L53.6395 1.04825C53.8306 0.924998 54.0612 0.878424 54.2851 0.91784C54.509 0.957256 54.7098 1.07976 54.8473 1.26084C54.9848 1.44192 55.0488 1.66824 55.0266 1.89451C55.0044 2.12079 54.8976 2.33035 54.7276 2.48127L47.1379 8.26646C46.8978 8.45 46.7362 8.71772 46.6858 9.01567C46.6353 9.31361 46.6996 9.61961 46.8658 9.87198C49.4267 13.7398 54.0442 20.7059 56.2137 23.8838C56.3866 24.1395 56.6523 24.3179 56.9545 24.3811C57.2567 24.4442 57.5716 24.3872 57.8325 24.2222L64.0157 20.341C64.2216 20.2143 64.4694 20.1746 64.7045 20.2306C64.9397 20.2866 65.1429 20.4337 65.2696 20.6396C65.3963 20.8455 65.436 21.0932 65.38 21.3284C65.3241 21.5635 65.1769 21.7668 64.9711 21.8935L58.7878 25.7746C58.3114 26.0763 57.7595 26.2373 57.1956 26.239Z" fill="#9EB0C1"/>
<path d="M7.71599 24.7529C7.19949 24.7518 6.69209 24.6169 6.24316 24.3615L0.457976 21.0907C0.280261 20.961 0.156061 20.7709 0.108738 20.556C0.0614136 20.3411 0.0942267 20.1164 0.201005 19.924C0.307783 19.7317 0.481168 19.5849 0.688547 19.5115C0.895926 19.438 1.12301 19.4428 1.32708 19.525L7.11226 22.7958C7.36993 22.9436 7.67365 22.9895 7.9635 22.9244C8.25334 22.8593 8.50827 22.688 8.67798 22.4442L17.369 10.0511C17.5429 9.80737 17.6178 9.50664 17.5784 9.2098C17.5389 8.91296 17.3882 8.64217 17.1567 8.45224L8.83057 1.59229C8.71797 1.52693 8.62084 1.43798 8.54587 1.33154C8.47089 1.2251 8.41984 1.10369 8.39622 0.975657C8.37259 0.847623 8.37696 0.715992 8.40901 0.589804C8.44107 0.463616 8.50005 0.345859 8.58191 0.24462C8.66378 0.143381 8.76658 0.0610575 8.88326 0.0033025C8.99995 -0.0544525 9.12775 -0.086271 9.25789 -0.0899681C9.38804 -0.0936653 9.51744 -0.0691535 9.63721 -0.0181158C9.75699 0.0329218 9.8643 0.109276 9.95178 0.205705L18.3111 7.07229C18.8814 7.54922 19.2522 8.22253 19.3504 8.95941C19.4487 9.6963 19.2672 10.4432 18.8419 11.0529L10.1641 23.4725C9.88976 23.8678 9.52379 24.1907 9.09745 24.4137C8.67112 24.6367 8.19712 24.7531 7.71599 24.7529Z" fill="#9EB0C1"/>
<path d="M50.9127 27.9971C50.7337 28.0006 50.5576 27.9508 50.407 27.854C50.2563 27.7572 50.1379 27.6178 50.0667 27.4534C49.9956 27.2891 49.9749 27.1073 50.0075 26.9312C50.04 26.7551 50.1241 26.5926 50.2493 26.4645L54.0242 22.6232C54.1914 22.4499 54.4205 22.3501 54.6613 22.3457C54.902 22.3414 55.1347 22.4328 55.308 22.6C55.4813 22.7672 55.5811 22.9963 55.5855 23.2371C55.5898 23.4778 55.4984 23.7104 55.3312 23.8837L51.5562 27.7251C51.4727 27.8112 51.3726 27.8797 51.2621 27.9264C51.1515 27.9731 51.0327 27.9972 50.9127 27.9971Z" fill="#9EB0C1"/>
<path d="M4.92312 20.3144C4.75987 20.3135 4.59994 20.2683 4.46035 20.1836C4.32077 20.0989 4.20678 19.978 4.13052 19.8336C4.05426 19.6893 4.0186 19.5269 4.02732 19.3639C4.03605 19.2009 4.08884 19.0433 4.18007 18.9079L8.65828 12.373C8.72055 12.2657 8.80428 12.1724 8.90424 12.0989C9.0042 12.0254 9.11825 11.9733 9.23925 11.9459C9.36025 11.9185 9.48561 11.9163 9.60749 11.9395C9.72937 11.9627 9.84516 12.0108 9.94761 12.0808C10.0501 12.1508 10.137 12.2411 10.2029 12.3462C10.2689 12.4513 10.3125 12.5689 10.3309 12.6916C10.3494 12.8143 10.3424 12.9394 10.3103 13.0593C10.2782 13.1791 10.2217 13.2911 10.1444 13.3881L5.66617 19.9031C5.58603 20.0278 5.47619 20.1306 5.34651 20.2024C5.21682 20.2742 5.07134 20.3127 4.92312 20.3144Z" fill="#9EB0C1"/>
<path d="M58.9271 21.2301C58.7742 21.2303 58.6239 21.1914 58.4903 21.117C58.3568 21.0427 58.2445 20.9355 58.1641 20.8055L53.9247 14.0251C53.817 13.8235 53.7898 13.5885 53.8486 13.3677C53.9075 13.1468 54.048 12.9565 54.2417 12.8352C54.4355 12.7139 54.668 12.6706 54.8924 12.7142C55.1168 12.7577 55.3163 12.8848 55.4506 13.0698L59.7099 19.8634C59.7925 20.001 59.8369 20.1581 59.8386 20.3186C59.8402 20.4791 59.799 20.6371 59.7193 20.7763C59.6395 20.9156 59.5241 21.031 59.3848 21.1108C59.2455 21.1906 59.0875 21.2317 58.9271 21.2301Z" fill="#9EB0C1"/>
</g>
<defs>
<clipPath id="clip0">
<rect width="65.3885" height="43.2496" fill="white"/>
</clipPath>
</defs>
</svg>
