<svg width="44" height="44" viewBox="0 0 44 44" fill="none" xmlns="http://www.w3.org/2000/svg">
<g clip-path="url(#clip0)">
<path d="M43.296 16.5859C43.3014 16.5374 43.3014 16.4885 43.296 16.44C43.2866 16.3968 43.2733 16.3546 43.2562 16.3139C43.2358 16.274 43.2113 16.2362 43.1832 16.2011C43.1565 16.1602 43.1254 16.1224 43.0904 16.0884V16.0552L36.0911 10.615V5.04875C36.0911 4.47514 35.8632 3.92502 35.4576 3.51941C35.052 3.11381 34.5019 2.88594 33.9283 2.88594H26.0997L22.9683 0.451122C22.5902 0.153022 22.1228 -0.00909424 21.6414 -0.00909424C21.16 -0.00909424 20.6926 0.153022 20.3145 0.451122L17.203 2.88594H9.38105C8.80744 2.88594 8.25732 3.11381 7.85171 3.51941C7.44611 3.92502 7.21824 4.47514 7.21824 5.04875V10.615L0.278675 16.0287V16.0618C0.243656 16.0959 0.212507 16.1337 0.185793 16.1746C0.157714 16.2096 0.133262 16.2474 0.112815 16.2874C0.0956545 16.3281 0.082328 16.3703 0.0730087 16.4134C0.040648 16.4672 0.0160772 16.5253 3.05176e-05 16.5859C3.05176e-05 16.5859 3.05176e-05 16.5859 3.05176e-05 16.5859V41.1332C0.00145122 41.5923 0.150294 42.0388 0.424631 42.407C0.624816 42.6696 0.882667 42.8828 1.17829 43.0301C1.47391 43.1773 1.79941 43.2547 2.12967 43.2562H41.1332C41.4613 43.263 41.7867 43.1948 42.0844 43.0569C42.3822 42.9189 42.6446 42.7148 42.8515 42.46C43.1487 42.0817 43.31 41.6143 43.3093 41.1332V16.5859H43.296ZM21.2301 1.59224C21.3502 1.48945 21.5032 1.43297 21.6613 1.43297C21.8194 1.43297 21.9724 1.48945 22.0925 1.59224L23.7578 2.88594H19.5582L21.2301 1.59224ZM2.34197 41.8629L21.2301 27.201C21.3502 27.0982 21.5032 27.0417 21.6613 27.0417C21.8194 27.0417 21.9724 27.0982 22.0925 27.201L40.9607 41.8629H2.34197ZM41.863 40.7351L22.9683 26.0598C22.5902 25.7617 22.1228 25.5996 21.6414 25.5996C21.16 25.5996 20.6926 25.7617 20.3145 26.0598L1.43969 40.7351V17.7005L13.2688 26.8825C13.4211 26.9835 13.6059 27.023 13.7862 26.9933C13.9664 26.9636 14.1287 26.8667 14.2405 26.7222C14.3522 26.5776 14.4051 26.3962 14.3886 26.2142C14.372 26.0323 14.2872 25.8634 14.1512 25.7414L2.1363 16.4134L7.21161 12.466V18.0455C7.21161 18.1405 7.23031 18.2345 7.26665 18.3222C7.30299 18.41 7.35626 18.4897 7.42341 18.5569C7.49056 18.624 7.57028 18.6773 7.65802 18.7136C7.74575 18.75 7.83979 18.7687 7.93475 18.7687C8.02972 18.7687 8.12375 18.75 8.21149 18.7136C8.29923 18.6773 8.37895 18.624 8.4461 18.5569C8.51325 18.4897 8.56651 18.41 8.60286 18.3222C8.6392 18.2345 8.6579 18.1405 8.6579 18.0455V5.04875C8.6579 4.85696 8.73409 4.67302 8.86971 4.53741C9.00532 4.40179 9.18926 4.3256 9.38105 4.3256H33.9283C34.1201 4.3256 34.304 4.40179 34.4396 4.53741C34.5752 4.67302 34.6514 4.85696 34.6514 5.04875V18.0455C34.6514 18.2373 34.7276 18.4212 34.8632 18.5569C34.9988 18.6925 35.1828 18.7687 35.3746 18.7687C35.5664 18.7687 35.7503 18.6925 35.8859 18.5569C36.0215 18.4212 36.0977 18.2373 36.0977 18.0455V12.466L41.173 16.4134L29.1316 25.7613C29.0488 25.8162 28.9781 25.8876 28.9241 25.9711C28.8701 26.0545 28.8339 26.1482 28.8177 26.2463C28.8015 26.3443 28.8057 26.4447 28.8301 26.541C28.8544 26.6374 28.8984 26.7277 28.9592 26.8064C29.02 26.885 29.0963 26.9502 29.1835 26.998C29.2706 27.0458 29.3667 27.0752 29.4656 27.0842C29.5646 27.0932 29.6644 27.0817 29.7588 27.0504C29.8531 27.0191 29.94 26.9688 30.014 26.9024L41.863 17.7005V40.7351Z" fill="#9EB0C1"/>
<path d="M30.3124 17.3223V14.4363C30.3138 12.7221 29.8065 11.046 28.855 9.6201C27.9034 8.19422 26.5503 7.08264 24.9668 6.42602C23.3833 5.7694 21.6406 5.59725 19.9592 5.93136C18.2778 6.26547 16.7334 7.09082 15.5212 8.30298C14.3091 9.51513 13.4837 11.0596 13.1496 12.741C12.8155 14.4223 12.9876 16.165 13.6442 17.7485C14.3009 19.332 15.4124 20.6852 16.8383 21.6367C18.2642 22.5883 19.9403 23.0955 21.6546 23.0942C21.8464 23.0942 22.0303 23.018 22.1659 22.8824C22.3015 22.7468 22.3777 22.5629 22.3777 22.3711C22.3777 22.1793 22.3015 21.9953 22.1659 21.8597C22.0303 21.7241 21.8464 21.6479 21.6546 21.6479C20.2267 21.6479 18.8308 21.2244 17.6437 20.431C16.4565 19.6375 15.5313 18.5098 14.9852 17.1905C14.439 15.8711 14.2965 14.4194 14.5755 13.0191C14.8546 11.6187 15.5427 10.3325 16.5529 9.32331C17.563 8.31409 18.8498 7.62715 20.2504 7.34938C21.6511 7.07162 23.1026 7.21551 24.4215 7.76285C25.7403 8.3102 26.8672 9.23641 27.6595 10.4243C28.4519 11.6122 28.8741 13.0084 28.8728 14.4363V17.3223C28.8862 17.52 28.8588 17.7184 28.7924 17.9051C28.7259 18.0918 28.6218 18.2629 28.4865 18.4077C28.3512 18.5525 28.1876 18.6679 28.0058 18.7468C27.824 18.8258 27.628 18.8665 27.4298 18.8665C27.2316 18.8665 27.0356 18.8258 26.8538 18.7468C26.672 18.6679 26.5084 18.5525 26.3731 18.4077C26.2378 18.2629 26.1337 18.0918 26.0672 17.9051C26.0008 17.7184 25.9734 17.52 25.9868 17.3223V14.4363C25.9868 14.2445 25.9106 14.0606 25.775 13.925C25.6394 13.7894 25.4555 13.7132 25.2637 13.7132C25.0719 13.7132 24.8879 13.7894 24.7523 13.925C24.6167 14.0606 24.5405 14.2445 24.5405 14.4363C24.5405 15.0071 24.3713 15.5651 24.0542 16.0397C23.737 16.5143 23.2863 16.8842 22.759 17.1026C22.2316 17.321 21.6514 17.3782 21.0915 17.2668C20.5317 17.1555 20.0175 16.8806 19.6139 16.477C19.2103 16.0734 18.9354 15.5592 18.8241 14.9994C18.7127 14.4395 18.7699 13.8593 18.9883 13.3319C19.2067 12.8046 19.5766 12.3539 20.0512 12.0368C20.5258 11.7196 21.0838 11.5504 21.6546 11.5504C21.8464 11.5504 22.0303 11.4742 22.1659 11.3386C22.3015 11.203 22.3777 11.019 22.3777 10.8272C22.3777 10.6354 22.3015 10.4515 22.1659 10.3159C22.0303 10.1803 21.8464 10.1041 21.6546 10.1041C20.9484 10.098 20.2514 10.2647 19.6244 10.5895C18.9974 10.9144 18.4592 11.3876 18.0569 11.968C17.6546 12.5484 17.4002 13.2183 17.316 13.9195C17.2318 14.6206 17.3202 15.3317 17.5736 15.9909C17.8271 16.65 18.2378 17.2373 18.7701 17.7014C19.3023 18.1655 19.94 18.4925 20.6275 18.6538C21.315 18.8152 22.0315 18.806 22.7147 18.6271C23.3979 18.4483 24.0269 18.1051 24.5472 17.6275C24.6179 18.3666 24.9715 19.0499 25.534 19.5345C26.0966 20.0192 26.8246 20.2677 27.5661 20.2284C28.3076 20.189 29.0052 19.8647 29.5132 19.3231C30.0213 18.7816 30.3005 18.0648 30.2925 17.3223H30.3124Z" fill="#9EB0C1"/>
</g>
<defs>
<clipPath id="clip0">
<rect width="43.3093" height="43.3093" fill="white"/>
</clipPath>
</defs>
</svg>
