<svg width="85" height="33" viewBox="0 0 85 33" fill="none" xmlns="http://www.w3.org/2000/svg">
<g clip-path="url(#clip0)">
<path d="M44.7024 0.895305C44.7025 0.795452 44.7024 0.663674 44.6434 0.604686C44.6045 0.51276 44.5473 0.429636 44.4755 0.360279C44.4037 0.290922 44.3186 0.236755 44.2253 0.201013C44.1321 0.165271 44.0326 0.148688 43.9328 0.152254L3.12479 0C2.29605 0 1.50124 0.329219 0.915231 0.915231C0.329219 1.50124 0 2.29605 0 3.12479L0 24.587C0 24.9974 0.0808252 25.4037 0.237861 25.7828C0.394897 26.162 0.625067 26.5064 0.915231 26.7966C1.2054 27.0868 1.54987 27.3169 1.92899 27.474C2.30811 27.631 2.71444 27.7118 3.12479 27.7118H44.8219C45.019 27.7118 45.208 27.6335 45.3473 27.4942C45.4867 27.3548 45.565 27.1658 45.565 26.9688C45.565 26.7717 45.4867 26.5827 45.3473 26.4434C45.208 26.304 45.019 26.2257 44.8219 26.2257H3.12479C2.9096 26.2257 2.69651 26.1833 2.49769 26.101C2.29888 26.0186 2.11823 25.8979 1.96606 25.7458C1.8139 25.5936 1.69319 25.4129 1.61084 25.2141C1.52849 25.0153 1.4861 24.8022 1.4861 24.587V3.12479C1.4861 2.69019 1.65875 2.27338 1.96606 1.96606C2.27338 1.65875 2.69019 1.4861 3.12479 1.4861L43.9328 1.63836C44.0326 1.64192 44.1321 1.62534 44.2253 1.5896C44.3186 1.55386 44.4037 1.49969 44.4755 1.43033C44.5473 1.36097 44.6045 1.27785 44.6434 1.18592C44.6824 1.094 44.7025 0.995158 44.7024 0.895305Z" fill="#9EB0C1"/>
<path d="M5.86487 17.1473V13.4878C5.86487 13.3763 5.9175 13.2866 6.02277 13.2184C6.13422 13.1503 6.27974 13.1163 6.45931 13.1163C6.60792 13.1163 6.73176 13.1503 6.83083 13.2184C6.9361 13.2866 6.98873 13.3763 6.98873 13.4878V13.7664C7.08781 13.5683 7.2457 13.4011 7.46243 13.2649C7.68534 13.1287 7.94232 13.0605 8.23334 13.0605C8.6606 13.0605 9.03212 13.2463 9.34792 13.6178C9.66991 13.9894 9.8309 14.4321 9.8309 14.946V17.1473C9.8309 17.265 9.76898 17.3579 9.64514 17.426C9.52749 17.4941 9.38817 17.5281 9.22717 17.5281C9.07237 17.5281 8.93305 17.4941 8.80921 17.426C8.69156 17.3579 8.63273 17.265 8.63273 17.1473V14.946C8.63273 14.7293 8.55224 14.5374 8.39124 14.3702C8.23025 14.1968 8.04139 14.1101 7.82467 14.1101C7.62033 14.1101 7.44076 14.1875 7.28595 14.3423C7.13734 14.4971 7.06304 14.6984 7.06304 14.946V17.1473C7.06304 17.2402 7.00112 17.3269 6.87728 17.4074C6.75963 17.4879 6.6203 17.5281 6.45931 17.5281C6.29212 17.5281 6.1497 17.491 6.03205 17.4167C5.9206 17.3362 5.86487 17.2464 5.86487 17.1473Z" fill="#9EB0C1"/>
<path d="M10.4666 16.3764C10.4666 15.8749 10.6523 15.5219 11.0238 15.3176C11.3954 15.1132 11.931 15.0111 12.6307 15.0111H13.0115V14.8903C13.0115 14.6612 12.9434 14.4631 12.8072 14.2959C12.6771 14.1225 12.4728 14.0358 12.1942 14.0358C11.9155 14.0358 11.6771 14.0853 11.479 14.1844C11.2808 14.2773 11.1663 14.3237 11.1353 14.3237C11.0115 14.3237 10.9124 14.2618 10.8381 14.138C10.7638 14.0141 10.7266 13.8779 10.7266 13.7293C10.7266 13.5497 10.8845 13.3949 11.2003 13.2649C11.5223 13.1287 11.8598 13.0605 12.2127 13.0605C12.8877 13.0605 13.3892 13.2339 13.7174 13.5807C14.0456 13.9212 14.2097 14.3516 14.2097 14.8717V17.1473C14.2097 17.2526 14.154 17.3424 14.0425 17.4167C13.931 17.491 13.7917 17.5281 13.6245 17.5281C13.4697 17.5281 13.3397 17.491 13.2344 17.4167C13.1354 17.3424 13.0858 17.2526 13.0858 17.1473V16.878C12.6586 17.3671 12.188 17.6117 11.674 17.6117C11.3211 17.6117 11.03 17.5065 10.8009 17.2959C10.578 17.0854 10.4666 16.7789 10.4666 16.3764ZM11.6647 16.2185C11.6647 16.3857 11.7081 16.5126 11.7948 16.5993C11.8876 16.6798 12.0084 16.7201 12.157 16.7201C12.3551 16.7201 12.5471 16.6272 12.7329 16.4414C12.9186 16.2557 13.0115 16.0513 13.0115 15.8284V15.6334H12.8722C12.4945 15.6334 12.1973 15.6736 11.9805 15.7541C11.77 15.8284 11.6647 15.9832 11.6647 16.2185Z" fill="#9EB0C1"/>
<path d="M15.0986 17.1473V13.4878C15.0986 13.3763 15.1512 13.2866 15.2565 13.2184C15.3679 13.1503 15.5135 13.1163 15.693 13.1163C15.8416 13.1163 15.9655 13.1503 16.0646 13.2184C16.1698 13.2866 16.2224 13.3763 16.2224 13.4878V13.7664C16.4887 13.2958 16.8974 13.0605 17.4485 13.0605C17.7086 13.0605 17.9408 13.1472 18.1451 13.3206C18.3556 13.4878 18.5104 13.7107 18.6095 13.9894C18.7643 13.6859 18.9655 13.4568 19.2132 13.302C19.4671 13.141 19.7334 13.0605 20.012 13.0605C20.4578 13.0605 20.8448 13.2308 21.173 13.5714C21.5012 13.912 21.6653 14.3702 21.6653 14.946V17.1473C21.6653 17.2402 21.6034 17.3269 21.4795 17.4074C21.3619 17.4879 21.2226 17.5281 21.0616 17.5281C20.9068 17.5281 20.7674 17.4879 20.6436 17.4074C20.526 17.3269 20.4671 17.2402 20.4671 17.1473V14.946C20.4671 14.686 20.3928 14.4816 20.2442 14.333C20.0956 14.1782 19.9191 14.1008 19.7148 14.1008C19.5166 14.1008 19.3433 14.1782 19.1947 14.333C19.0522 14.4816 18.981 14.6829 18.981 14.9368V17.1566C18.981 17.2805 18.9222 17.3733 18.8046 17.4353C18.6869 17.4972 18.5445 17.5281 18.3773 17.5281C18.2225 17.5281 18.0832 17.4972 17.9593 17.4353C17.8417 17.3671 17.7829 17.2743 17.7829 17.1566V14.946C17.7829 14.6984 17.7055 14.4971 17.5507 14.3423C17.402 14.1875 17.2256 14.1101 17.0212 14.1101C16.8231 14.1101 16.6528 14.1844 16.5104 14.333C16.368 14.4816 16.2968 14.686 16.2968 14.946V17.1473C16.2968 17.2402 16.2348 17.3269 16.111 17.4074C15.9933 17.4879 15.854 17.5281 15.693 17.5281C15.5258 17.5281 15.3834 17.491 15.2658 17.4167C15.1543 17.3362 15.0986 17.2464 15.0986 17.1473Z" fill="#9EB0C1"/>
<path d="M22.3873 15.7077V14.9182C22.3873 14.4104 22.5855 13.9739 22.9817 13.6085C23.378 13.2432 23.8579 13.0605 24.4214 13.0605C24.9477 13.0605 25.3967 13.2277 25.7682 13.5621C26.1459 13.8903 26.3348 14.3052 26.3348 14.8067C26.3348 14.9925 26.31 15.1473 26.2605 15.2711C26.2171 15.3888 26.1459 15.4724 26.0468 15.5219C25.9539 15.5714 25.8673 15.6024 25.7868 15.6148C25.7063 15.6272 25.601 15.6334 25.471 15.6334H23.5855V15.7727C23.5855 16.0389 23.6845 16.2557 23.8827 16.4229C24.0808 16.5838 24.344 16.6643 24.6722 16.6643C24.9075 16.6643 25.1397 16.6055 25.3688 16.4879C25.5979 16.3702 25.7465 16.3114 25.8146 16.3114C25.9447 16.3114 26.053 16.3733 26.1397 16.4972C26.2264 16.6148 26.2697 16.7294 26.2697 16.8408C26.2697 17.0142 26.1118 17.1876 25.7961 17.361C25.4864 17.5281 25.0994 17.6117 24.635 17.6117C23.9725 17.6117 23.4307 17.4384 23.0096 17.0916C22.5947 16.7386 22.3873 16.2773 22.3873 15.7077ZM23.5855 14.9275H24.9415C25.0406 14.9275 25.1087 14.912 25.1459 14.881C25.1892 14.8439 25.2109 14.7758 25.2109 14.6767C25.2109 14.46 25.1304 14.2835 24.9694 14.1473C24.8146 14.011 24.6227 13.9429 24.3935 13.9429C24.1768 13.9429 23.988 14.011 23.827 14.1473C23.666 14.2773 23.5855 14.4507 23.5855 14.6674V14.9275Z" fill="#9EB0C1"/>
<path d="M27.0256 17.3981C26.9079 17.2743 26.8491 17.1257 26.8491 16.9523C26.8491 16.7789 26.9079 16.6303 27.0256 16.5064C27.1494 16.3826 27.3011 16.3207 27.4807 16.3207C27.6479 16.3207 27.7934 16.3826 27.9172 16.5064C28.0411 16.6303 28.103 16.7789 28.103 16.9523C28.103 17.1195 28.0411 17.2681 27.9172 17.3981C27.7934 17.5219 27.6479 17.5839 27.4807 17.5839C27.3011 17.5839 27.1494 17.5219 27.0256 17.3981Z" fill="#9EB0C1"/>
<path d="M28.7848 15.7262V13.4971C28.7848 13.4042 28.8436 13.3175 28.9613 13.237C29.0851 13.1565 29.2275 13.1163 29.3885 13.1163C29.5433 13.1163 29.6796 13.1565 29.7972 13.237C29.921 13.3175 29.983 13.4042 29.983 13.4971V15.7262C29.983 15.943 30.0635 16.138 30.2245 16.3114C30.3855 16.4786 30.5774 16.5622 30.8003 16.5622C31.0232 16.5622 31.2121 16.4786 31.3669 16.3114C31.5279 16.138 31.6084 15.943 31.6084 15.7262V13.4878C31.6084 13.3887 31.6672 13.302 31.7849 13.2277C31.9087 13.1534 32.0511 13.1163 32.2121 13.1163C32.3855 13.1163 32.5279 13.1534 32.6394 13.2277C32.7508 13.302 32.8066 13.3887 32.8066 13.4878V15.7262C32.8066 16.2278 32.6084 16.6674 32.2121 17.0452C31.8158 17.4229 31.3452 17.6117 30.8003 17.6117C30.2554 17.6117 29.7817 17.4229 29.3792 17.0452C28.9829 16.6674 28.7848 16.2278 28.7848 15.7262Z" fill="#9EB0C1"/>
<path d="M33.7021 17.1473V13.4878C33.7021 13.3763 33.7547 13.2866 33.86 13.2184C33.9714 13.1503 34.1169 13.1163 34.2965 13.1163C34.4451 13.1163 34.569 13.1503 34.668 13.2184C34.7733 13.2866 34.8259 13.3763 34.8259 13.4878V13.7664C34.925 13.5683 35.0829 13.4011 35.2996 13.2649C35.5225 13.1287 35.7795 13.0605 36.0705 13.0605C36.4978 13.0605 36.8693 13.2463 37.1851 13.6178C37.5071 13.9894 37.6681 14.4321 37.6681 14.946V17.1473C37.6681 17.265 37.6062 17.3579 37.4823 17.426C37.3647 17.4941 37.2254 17.5281 37.0644 17.5281C36.9096 17.5281 36.7703 17.4941 36.6464 17.426C36.5288 17.3579 36.4699 17.265 36.4699 17.1473V14.946C36.4699 14.7293 36.3894 14.5374 36.2284 14.3702C36.0674 14.1968 35.8786 14.1101 35.6619 14.1101C35.4575 14.1101 35.278 14.1875 35.1232 14.3423C34.9745 14.4971 34.9002 14.6984 34.9002 14.946V17.1473C34.9002 17.2402 34.8383 17.3269 34.7145 17.4074C34.5968 17.4879 34.4575 17.5281 34.2965 17.5281C34.1293 17.5281 33.9869 17.491 33.8693 17.4167C33.7578 17.3362 33.7021 17.2464 33.7021 17.1473Z" fill="#9EB0C1"/>
<path fill-rule="evenodd" clip-rule="evenodd" d="M44.4613 0.498771C44.7245 0.753722 44.7311 1.17374 44.4762 1.4369L40.8328 5.1976L45.0198 9.00276L40.9364 13.8177L45.1251 17.8133L41.2141 22.1188L45.207 26.5091C45.4535 26.7802 45.4336 27.1998 45.1626 27.4463C44.8915 27.6929 44.4719 27.673 44.2254 27.4019L39.4211 22.1193L43.2723 17.8797L39.115 13.914L43.1786 9.1224L38.9266 5.25822L43.5232 0.513638C43.7781 0.250477 44.1981 0.24382 44.4613 0.498771Z" fill="#9EB0C1"/>
<path d="M45.6504 20.3013V20.1898C45.6504 19.2981 46.0189 18.7161 46.7557 18.4436C46.1613 18.2331 45.864 17.7563 45.864 17.0133C45.864 16.4498 46.0405 16.0349 46.3935 15.7687C46.7464 15.5024 47.2263 15.3693 47.8331 15.3693C48.4338 15.3693 48.9106 15.5024 49.2635 15.7687C49.6165 16.0349 49.7929 16.4498 49.7929 17.0133C49.7929 17.7563 49.4957 18.2331 48.9013 18.4436C49.6381 18.7099 50.0066 19.292 50.0066 20.1898V20.3013C50.0066 20.9576 49.8084 21.4406 49.4121 21.7502C49.0158 22.0598 48.4895 22.2146 47.8331 22.2146C47.1768 22.2146 46.6473 22.0598 46.2449 21.7502C45.8486 21.4406 45.6504 20.9576 45.6504 20.3013ZM46.8579 20.1619C46.8579 20.874 47.183 21.2301 47.8331 21.2301C48.4771 21.2301 48.7991 20.874 48.7991 20.1619V19.9762C48.7991 19.295 48.4771 18.9545 47.8331 18.9545C47.183 18.9545 46.8579 19.295 46.8579 19.9762V20.1619ZM47.8331 16.3538C47.3006 16.3538 47.0344 16.6232 47.0344 17.1619C47.0344 17.7006 47.3006 17.9699 47.8331 17.9699C48.3657 17.9699 48.6319 17.7006 48.6319 17.1619C48.6319 16.6232 48.3657 16.3538 47.8331 16.3538Z" fill="#9EB0C1"/>
<path d="M50.7329 20.0876V17.4962C50.7329 16.7594 50.928 16.2207 51.3181 15.8801C51.7144 15.5395 52.2438 15.3693 52.9063 15.3693C53.5689 15.3693 54.0983 15.5395 54.4946 15.8801C54.8909 16.2207 55.0891 16.7594 55.0891 17.4962V20.0876C55.0891 20.8245 54.8909 21.3632 54.4946 21.7038C54.0983 22.0443 53.5689 22.2146 52.9063 22.2146C52.2438 22.2146 51.7144 22.0443 51.3181 21.7038C50.928 21.3632 50.7329 20.8245 50.7329 20.0876ZM51.9404 20.0876C51.9404 20.7997 52.2624 21.1558 52.9063 21.1558C53.5565 21.1558 53.8816 20.7997 53.8816 20.0876V17.4962C53.8816 16.7842 53.5565 16.4281 52.9063 16.4281C52.2624 16.4281 51.9404 16.7842 51.9404 17.4962V20.0876ZM52.5998 19.1124C52.5193 19.0319 52.4791 18.9266 52.4791 18.7966C52.4791 18.6666 52.5162 18.5644 52.5905 18.4901C52.671 18.4096 52.7794 18.3693 52.9156 18.3693C53.0457 18.3693 53.1478 18.4096 53.2221 18.4901C53.3026 18.5644 53.3429 18.6666 53.3429 18.7966C53.3429 18.9266 53.3026 19.0319 53.2221 19.1124C53.1478 19.1929 53.0457 19.2331 52.9156 19.2331C52.7856 19.2331 52.6803 19.1929 52.5998 19.1124Z" fill="#9EB0C1"/>
<path d="M55.6979 20.5242C55.6979 20.3446 55.7412 20.2208 55.8279 20.1527C55.9146 20.0845 56.0632 20.0505 56.2737 20.0505C56.5152 20.0505 56.6793 20.0845 56.766 20.1527C56.8527 20.2146 56.896 20.3229 56.896 20.4777C56.896 20.6883 56.9827 20.8555 57.1561 20.9793C57.3295 21.0969 57.5648 21.1558 57.862 21.1558C58.2088 21.1558 58.4595 21.0784 58.6143 20.9236C58.7753 20.7626 58.8558 20.5056 58.8558 20.1527V19.9762C58.8558 19.3879 58.5153 19.0938 57.8341 19.0938C57.5926 19.0938 57.4719 18.9359 57.4719 18.6201C57.4719 18.3043 57.5926 18.1464 57.8341 18.1464C58.1066 18.1464 58.3171 18.0876 58.4657 17.9699C58.6143 17.8461 58.6886 17.6015 58.6886 17.2362C58.6886 16.6913 58.4162 16.4188 57.8713 16.4188C57.3202 16.4188 57.0446 16.6263 57.0446 17.0411C57.0446 17.3507 56.8527 17.5055 56.4688 17.5055C56.2087 17.5055 56.0384 17.4715 55.9579 17.4034C55.8836 17.3291 55.8465 17.1897 55.8465 16.9854C55.8465 16.8058 55.8805 16.6294 55.9486 16.456C56.0168 16.2764 56.122 16.103 56.2644 15.9358C56.4131 15.7687 56.6267 15.6324 56.9053 15.5272C57.184 15.4219 57.5091 15.3693 57.8806 15.3693C59.1871 15.3693 59.8404 15.9235 59.8404 17.0318C59.8404 17.4034 59.7754 17.7284 59.6453 18.0071C59.5215 18.2795 59.345 18.4684 59.1159 18.5737C59.7475 18.8214 60.0633 19.2889 60.0633 19.9762V20.1527C60.0633 20.8586 59.8559 21.3787 59.441 21.7131C59.0323 22.0474 58.4967 22.2146 57.8341 22.2146C57.1344 22.2146 56.6019 22.0412 56.2366 21.6945C55.8774 21.3477 55.6979 20.9576 55.6979 20.5242Z" fill="#9EB0C1"/>
<path d="M60.783 20.0876V17.4962C60.783 16.7594 60.978 16.2207 61.3681 15.8801C61.7644 15.5395 62.2938 15.3693 62.9564 15.3693C63.619 15.3693 64.1484 15.5395 64.5447 15.8801C64.941 16.2207 65.1391 16.7594 65.1391 17.4962V20.0876C65.1391 20.8245 64.941 21.3632 64.5447 21.7038C64.1484 22.0443 63.619 22.2146 62.9564 22.2146C62.2938 22.2146 61.7644 22.0443 61.3681 21.7038C60.978 21.3632 60.783 20.8245 60.783 20.0876ZM61.9904 20.0876C61.9904 20.7997 62.3124 21.1558 62.9564 21.1558C63.6066 21.1558 63.9317 20.7997 63.9317 20.0876V17.4962C63.9317 16.7842 63.6066 16.4281 62.9564 16.4281C62.3124 16.4281 61.9904 16.7842 61.9904 17.4962V20.0876ZM62.6499 19.1124C62.5694 19.0319 62.5291 18.9266 62.5291 18.7966C62.5291 18.6666 62.5663 18.5644 62.6406 18.4901C62.7211 18.4096 62.8295 18.3693 62.9657 18.3693C63.0957 18.3693 63.1979 18.4096 63.2722 18.4901C63.3527 18.5644 63.3929 18.6666 63.3929 18.7966C63.3929 18.9266 63.3527 19.0319 63.2722 19.1124C63.1979 19.1929 63.0957 19.2331 62.9657 19.2331C62.8357 19.2331 62.7304 19.1929 62.6499 19.1124Z" fill="#9EB0C1"/>
<path d="M65.8594 20.3384V19.5489C65.8594 19.0412 66.0575 18.6046 66.4538 18.2393C66.8501 17.874 67.33 17.6913 67.8935 17.6913C68.4198 17.6913 68.8687 17.8585 69.2403 18.1929C69.618 18.521 69.8068 18.9359 69.8068 19.4375C69.8068 19.6232 69.7821 19.778 69.7325 19.9019C69.6892 20.0195 69.618 20.1031 69.5189 20.1527C69.426 20.2022 69.3393 20.2332 69.2588 20.2455C69.1783 20.2579 69.0731 20.2641 68.943 20.2641H67.0575V20.4034C67.0575 20.6697 67.1566 20.8864 67.3548 21.0536C67.5529 21.2146 67.8161 21.2951 68.1443 21.2951C68.3796 21.2951 68.6118 21.2363 68.8409 21.1186C69.07 21.001 69.2186 20.9421 69.2867 20.9421C69.4167 20.9421 69.5251 21.0041 69.6118 21.1279C69.6985 21.2456 69.7418 21.3601 69.7418 21.4716C69.7418 21.6449 69.5839 21.8183 69.2681 21.9917C68.9585 22.1589 68.5715 22.2425 68.1071 22.2425C67.4446 22.2425 66.9027 22.0691 66.4817 21.7223C66.0668 21.3694 65.8594 20.9081 65.8594 20.3384ZM67.0575 19.5582H68.4136C68.5127 19.5582 68.5808 19.5427 68.618 19.5118C68.6613 19.4746 68.683 19.4065 68.683 19.3074C68.683 19.0907 68.6025 18.9142 68.4415 18.778C68.2867 18.6418 68.0947 18.5737 67.8656 18.5737C67.6489 18.5737 67.46 18.6418 67.299 18.778C67.138 18.908 67.0575 19.0814 67.0575 19.2981V19.5582Z" fill="#9EB0C1"/>
<path d="M70.4884 20.0876V17.4962C70.4884 16.7594 70.6896 16.2207 71.0921 15.8801C71.5008 15.5395 72.0457 15.3693 72.7268 15.3693C73.4141 15.3693 73.9373 15.5426 74.2965 15.8894C74.6618 16.23 74.8445 16.6232 74.8445 17.069C74.8445 17.2548 74.798 17.3848 74.7052 17.4591C74.6185 17.5334 74.4761 17.5706 74.2779 17.5706C73.8568 17.5706 73.6463 17.4188 73.6463 17.1154C73.6463 16.9049 73.5534 16.7377 73.3677 16.6139C73.1881 16.49 72.9652 16.4281 72.6989 16.4281C72.024 16.4281 71.6865 16.7842 71.6865 17.4962V18.5087C71.9528 18.1929 72.3646 18.035 72.9218 18.035C73.5039 18.035 73.9683 18.1836 74.3151 18.4808C74.668 18.778 74.8445 19.2703 74.8445 19.9576V20.0876C74.8445 20.8245 74.6463 21.3632 74.25 21.7038C73.8599 22.0443 73.3336 22.2146 72.6711 22.2146C72.0085 22.2146 71.4791 22.0443 71.0828 21.7038C70.6865 21.3632 70.4884 20.8245 70.4884 20.0876ZM71.6865 20.1619C71.6865 20.874 72.0147 21.2301 72.6711 21.2301C73.315 21.2301 73.637 20.874 73.637 20.1619V20.0412C73.637 19.3353 73.3119 18.9823 72.6618 18.9823C72.0116 18.9823 71.6865 19.3074 71.6865 19.9576V20.1619Z" fill="#9EB0C1"/>
<path d="M75.3445 20.5242C75.3445 20.3446 75.3878 20.2208 75.4745 20.1527C75.5612 20.0845 75.7098 20.0505 75.9203 20.0505C76.1618 20.0505 76.3259 20.0845 76.4126 20.1527C76.4993 20.2146 76.5426 20.3229 76.5426 20.4777C76.5426 20.6883 76.6293 20.8555 76.8027 20.9793C76.9761 21.0969 77.2114 21.1558 77.5086 21.1558C77.8553 21.1558 78.1061 21.0784 78.2609 20.9236C78.4219 20.7626 78.5024 20.5056 78.5024 20.1527V19.9762C78.5024 19.3879 78.1619 19.0938 77.4807 19.0938C77.2392 19.0938 77.1185 18.9359 77.1185 18.6201C77.1185 18.3043 77.2392 18.1464 77.4807 18.1464C77.7532 18.1464 77.9637 18.0876 78.1123 17.9699C78.2609 17.8461 78.3352 17.6015 78.3352 17.2362C78.3352 16.6913 78.0628 16.4188 77.5179 16.4188C76.9668 16.4188 76.6912 16.6263 76.6912 17.0411C76.6912 17.3507 76.4993 17.5055 76.1154 17.5055C75.8553 17.5055 75.685 17.4715 75.6045 17.4034C75.5302 17.3291 75.4931 17.1897 75.4931 16.9854C75.4931 16.8058 75.5271 16.6294 75.5952 16.456C75.6633 16.2764 75.7686 16.103 75.911 15.9358C76.0596 15.7687 76.2733 15.6324 76.5519 15.5272C76.8306 15.4219 77.1556 15.3693 77.5272 15.3693C78.8337 15.3693 79.487 15.9235 79.487 17.0318C79.487 17.4034 79.4219 17.7284 79.2919 18.0071C79.1681 18.2795 78.9916 18.4684 78.7625 18.5737C79.3941 18.8214 79.7099 19.2889 79.7099 19.9762V20.1527C79.7099 20.8586 79.5024 21.3787 79.0876 21.7131C78.6789 22.0474 78.1433 22.2146 77.4807 22.2146C76.781 22.2146 76.2485 22.0412 75.8832 21.6945C75.524 21.3477 75.3445 20.9576 75.3445 20.5242Z" fill="#9EB0C1"/>
<path d="M44.9283 5.38715C44.9283 5.58422 45.0066 5.77322 45.146 5.91257C45.2853 6.05192 45.4743 6.13021 45.6714 6.13021H81.6032C82.0378 6.13021 82.4546 6.30285 82.762 6.61017C83.0693 6.91748 83.2419 7.33429 83.2419 7.7689V29.2311C83.2402 29.6646 83.0667 30.0797 82.7596 30.3856C82.4525 30.6915 82.0367 30.8632 81.6032 30.8632H45.8572C45.6601 30.8632 45.4711 30.9415 45.3317 31.0808C45.1924 31.2202 45.1141 31.4092 45.1141 31.6062C45.1141 31.8033 45.1924 31.9923 45.3317 32.1317C45.4711 32.271 45.6601 32.3493 45.8572 32.3493H81.6032C82.432 32.3493 83.2268 32.0201 83.8128 31.4341C84.3988 30.848 84.728 30.0532 84.728 29.2245V7.7689C84.728 6.94015 84.3988 6.14535 83.8128 5.55934C83.2268 4.97332 82.432 4.6441 81.6032 4.6441H45.6714C45.4743 4.6441 45.2853 4.72239 45.146 4.86174C45.0066 5.00109 44.9283 5.19009 44.9283 5.38715Z" fill="#9EB0C1"/>
</g>
<defs>
<clipPath id="clip0">
<rect width="84.7078" height="32.3559" fill="white"/>
</clipPath>
</defs>
</svg>
