<svg width="48" height="44" viewBox="0 0 48 44" fill="none" xmlns="http://www.w3.org/2000/svg">
<g clip-path="url(#clip0)">
<path d="M0 10.3828H1.82434V12.1143H0V10.3828Z" fill="#9EB0C1"/>
<path d="M6.38159 0H8.20593V1.73157H6.38159V0Z" fill="#9EB0C1"/>
<path d="M4.55751 3.46313H13.6442V5.18808H4.55751C4.31651 5.18808 4.08539 5.09721 3.91498 4.93546C3.74457 4.77372 3.64883 4.55435 3.64883 4.3256C3.64883 4.09686 3.74457 3.87749 3.91498 3.71575C4.08539 3.554 4.31651 3.46313 4.55751 3.46313Z" fill="#9EB0C1"/>
<path d="M2.73292 6.91962H11.8197V8.62465H2.73292C2.61359 8.62465 2.49543 8.60234 2.38519 8.559C2.27494 8.51566 2.17477 8.45213 2.09039 8.37204C2.00602 8.29195 1.93908 8.19688 1.89342 8.09224C1.84775 7.9876 1.82425 7.87544 1.82425 7.76218C1.82973 7.53691 1.92788 7.32262 2.0977 7.16515C2.26751 7.00769 2.49552 6.91956 2.73292 6.91962Z" fill="#9EB0C1"/>
<path d="M3.00572 37.1924L6.80118 32.8667H15.1889C17.6548 34.5536 20.6174 35.4614 23.6571 35.4614C26.6967 35.4614 29.6593 34.5536 32.1252 32.8667H42.8336C43.0746 32.8667 43.3057 32.7759 43.4761 32.6141C43.6465 32.4524 43.7423 32.233 43.7423 32.0043C43.7423 31.7755 43.6465 31.5562 43.4761 31.3944C43.3057 31.2327 43.0746 31.1418 42.8336 31.1418H34.2501C36.8291 28.5793 38.2683 25.1719 38.2683 21.6281C38.2683 18.0843 36.8291 14.6769 34.2501 12.1144H41.0092C41.1427 12.1143 41.2746 12.0864 41.3954 12.0325C41.5162 11.9786 41.623 11.9001 41.7082 11.8026L46.2656 6.63438C46.4014 6.47856 46.4757 6.28265 46.4757 6.08041C46.4757 5.87818 46.4014 5.68227 46.2656 5.52644L41.7082 0.311816C41.623 0.214302 41.5162 0.135807 41.3954 0.0819141C41.2746 0.0280212 41.1427 5.35982e-05 41.0092 0L10.9531 0C10.7121 0 10.481 0.0908671 10.3106 0.252612C10.1402 0.414356 10.0444 0.633729 10.0444 0.86247C10.0444 1.09121 10.1402 1.31058 10.3106 1.47233C10.481 1.63407 10.7121 1.72494 10.9531 1.72494H40.5829L44.3853 6.05719L40.5899 10.3828H32.1532C29.6873 8.6959 26.7247 7.78816 23.685 7.78816C20.6454 7.78816 17.6828 8.6959 15.2169 10.3828H4.55745C4.31646 10.3828 4.08533 10.4737 3.91492 10.6354C3.74451 10.7972 3.64878 11.0165 3.64878 11.2453C3.64878 11.474 3.74451 11.6934 3.91492 11.8551C4.08533 12.0169 4.31646 12.1078 4.55745 12.1078H13.1339C10.5549 14.6702 9.11578 18.0777 9.11578 21.6215C9.11578 25.1653 10.5549 28.5727 13.1339 31.1352H6.3748C6.24131 31.1352 6.10948 31.1632 5.98867 31.2171C5.86786 31.271 5.76105 31.3495 5.67582 31.447L1.12546 36.6417C0.98965 36.7975 0.915344 36.9934 0.915344 37.1957C0.915344 37.3979 0.98965 37.5938 1.12546 37.7496L5.68281 42.9377C5.76835 43.0349 5.87523 43.1132 5.99597 43.167C6.1167 43.2209 6.24838 43.249 6.38179 43.2496H36.4379C36.6789 43.2496 36.91 43.1587 37.0804 42.9969C37.2509 42.8352 37.3466 42.6158 37.3466 42.3871C37.3466 42.1583 37.2509 41.939 37.0804 41.7772C36.91 41.6155 36.6789 41.5246 36.4379 41.5246H6.80817L3.00572 37.1924ZM23.6955 9.51371C26.2182 9.51371 28.6842 10.2236 30.7819 11.5538C32.8795 12.8839 34.5145 14.7745 35.4802 16.9865C36.4459 19.1985 36.6989 21.6326 36.2073 23.9811C35.7157 26.3296 34.5014 28.487 32.7181 30.1806C30.9348 31.8742 28.6625 33.0278 26.1884 33.4958C23.7144 33.9637 21.1497 33.7249 18.8187 32.8095C16.4877 31.8941 14.4949 30.3432 13.0924 28.353C11.6898 26.3628 10.9405 24.0225 10.9391 21.6281C10.9382 20.0375 11.2675 18.4624 11.9082 16.9926C12.5488 15.5229 13.4883 14.1873 14.6729 13.0623C15.8576 11.9373 17.2641 11.0449 18.8122 10.436C20.3604 9.8271 22.0197 9.51371 23.6955 9.51371Z" fill="#9EB0C1"/>
<path d="M45.5665 31.1418H47.3908V32.8734H45.5665V31.1418Z" fill="#9EB0C1"/>
<path d="M39.1848 41.518H41.0092V43.2496H39.1848V41.518Z" fill="#9EB0C1"/>
<path d="M33.7189 38.0615H42.8057C43.0467 38.0615 43.2778 38.1524 43.4482 38.3141C43.6186 38.4759 43.7143 38.6953 43.7143 38.924C43.7143 39.1527 43.6186 39.3721 43.4482 39.5339C43.2778 39.6956 43.0467 39.7865 42.8057 39.7865H33.7189V38.0615Z" fill="#9EB0C1"/>
<path d="M35.5432 34.5983H44.6299C44.8709 34.5983 45.102 34.6891 45.2724 34.8509C45.4429 35.0126 45.5386 35.232 45.5386 35.4607C45.5386 35.6895 45.4429 35.9088 45.2724 36.0706C45.102 36.2323 44.8709 36.3232 44.6299 36.3232H35.5432V34.5983Z" fill="#9EB0C1"/>
<path d="M23.8001 25.2106L17.5093 22.3578L23.8001 32.8335L30.0909 22.3578L23.8001 25.2106ZM20.8085 25.2836L23.8001 26.6105L26.7918 25.2836L23.8001 30.2461L20.8085 25.2836Z" fill="#9EB0C1"/>
<path d="M29.9022 20.9978L23.8002 10.9335L17.6981 20.9978L23.8002 23.7445L29.9022 20.9978ZM23.8002 13.5076L27.2601 19.2397L23.7652 17.674L20.2703 19.2397L23.8002 13.5076ZM23.8002 19.107L27.365 20.7126L23.8002 22.3181L20.2354 20.7126L23.8002 19.107Z" fill="#9EB0C1"/>
<path fill-rule="evenodd" clip-rule="evenodd" d="M33.8823 11.7536C34.2235 12.0775 34.2235 12.6026 33.8823 12.9264L28.3883 18.1411C28.0471 18.4649 27.4938 18.4649 27.1526 18.1411C26.8114 17.8172 26.8114 17.2921 27.1526 16.9683L32.6466 11.7536C32.9878 11.4298 33.541 11.4298 33.8823 11.7536Z" fill="#9EB0C1"/>
<path fill-rule="evenodd" clip-rule="evenodd" d="M20.3776 24.5708C20.719 24.8945 20.7193 25.4196 20.3783 25.7436L14.3811 31.4425C14.04 31.7666 13.4868 31.7669 13.1454 31.4432C12.804 31.1196 12.8037 30.5945 13.1447 30.2704L19.142 24.5715C19.483 24.2474 20.0362 24.2471 20.3776 24.5708Z" fill="#9EB0C1"/>
</g>
<defs>
<clipPath id="clip0">
<rect width="47.3908" height="43.2496" fill="white"/>
</clipPath>
</defs>
</svg>
