<svg width="31" height="44" viewBox="0 0 31 44" fill="none" xmlns="http://www.w3.org/2000/svg">
<g clip-path="url(#clip0)">
<path d="M30.0471 4.64404H18.8815L19.2397 0.849169C19.2623 0.648947 19.2055 0.447849 19.0814 0.289068C18.9574 0.130287 18.776 0.0264885 18.5763 -3.24358e-05H12.3267C12.2251 -0.000908509 12.1243 0.0183508 12.0301 0.0566338C11.936 0.0949168 11.8504 0.151465 11.7782 0.223016C11.706 0.294566 11.6488 0.379701 11.6097 0.473507C11.5706 0.567313 11.5505 0.667932 11.5505 0.769556C11.5491 0.796077 11.5491 0.822648 11.5505 0.849169L11.9419 4.64404H0.769589C0.568883 4.64397 0.376092 4.72231 0.232325 4.86236C0.0885579 5.00241 0.00519065 5.19308 0 5.39372L0 42.3738C0.00519065 42.5744 0.0885579 42.7651 0.232325 42.9051C0.376092 43.0452 0.568883 43.1235 0.769589 43.1235H30.0471C30.2512 43.1235 30.447 43.0424 30.5913 42.8981C30.7356 42.7537 30.8167 42.558 30.8167 42.3539V5.39372C30.8115 5.19308 30.7282 5.00241 30.5844 4.86236C30.4406 4.72231 30.2478 4.64397 30.0471 4.64404ZM17.6408 1.53914L17.0238 7.70249H13.7995L13.1825 1.53914H17.6408ZM29.2775 41.6042H1.53918V6.16331H12.0945L12.3333 8.55169C12.3591 8.73689 12.4514 8.90637 12.5931 9.02847C12.7347 9.15056 12.9159 9.21691 13.1029 9.21513H17.747C17.934 9.21691 18.1152 9.15056 18.2568 9.02847C18.3985 8.90637 18.4908 8.73689 18.5166 8.55169L18.7554 6.16331H29.2775V41.6042Z" fill="#9EB0C1"/>
<path d="M19.2595 31.5865H11.557V33.1257H19.2595V31.5865Z" fill="#9EB0C1"/>
<path d="M23.8838 34.6714H6.93298V36.2106H23.8838V34.6714Z" fill="#9EB0C1"/>
<path d="M16.1746 3.08502H14.6354V4.6242H16.1746V3.08502Z" fill="#9EB0C1"/>
<path d="M4.62405 6.93304H3.08487V8.47222H4.62405V6.93304Z" fill="#9EB0C1"/>
<path d="M27.7317 6.93304H26.1925V8.47222H27.7317V6.93304Z" fill="#9EB0C1"/>
<path d="M4.62405 38.5261H3.08487V40.0652H4.62405V38.5261Z" fill="#9EB0C1"/>
<path d="M27.7317 38.5261H26.1925V40.0652H27.7317V38.5261Z" fill="#9EB0C1"/>
<path d="M21.5352 13.866C19.7751 12.3002 17.4835 11.4656 15.1287 11.5328C12.7739 11.6 10.5337 12.5639 8.86581 14.2275C7.19793 15.8912 6.22832 18.129 6.15513 20.4836C6.08195 22.8382 6.91071 25.1319 8.47206 26.8959V26.9623H8.53177C9.39504 27.932 10.4538 28.7082 11.6384 29.2396C12.823 29.7711 14.1066 30.0458 15.405 30.0458C16.7033 30.0458 17.987 29.7711 19.1716 29.2396C20.3562 28.7082 21.4149 27.932 22.2782 26.9623H22.3379V26.8959C23.1411 25.9878 23.7575 24.9303 24.1518 23.7839C24.5461 22.6375 24.7108 21.4247 24.6362 20.2146C24.5617 19.0046 24.2494 17.8211 23.7173 16.7318C23.1852 15.6424 22.4437 14.6686 21.5352 13.866ZM20.8054 26.2922C20.3352 26.7483 19.8091 27.1428 19.2397 27.4665V25.4231H17.7204V28.1498C16.2093 28.628 14.5874 28.628 13.0763 28.1498V25.4231H11.557V27.4665C10.9973 27.143 10.4802 26.7507 10.0179 26.2988V24.6535C10.0179 24.2453 10.18 23.8538 10.4687 23.5651C10.7573 23.2765 11.1488 23.1143 11.557 23.1143H19.2397C19.6479 23.1143 20.0394 23.2765 20.328 23.5651C20.6167 23.8538 20.7788 24.2453 20.7788 24.6535L20.8054 26.2922ZM13.0962 19.2398C13.0962 18.7832 13.2316 18.3368 13.4853 17.9572C13.739 17.5775 14.0996 17.2816 14.5215 17.1068C14.9433 16.9321 15.4076 16.8863 15.8554 16.9754C16.3033 17.0645 16.7146 17.2844 17.0375 17.6073C17.3604 17.9302 17.5803 18.3416 17.6694 18.7894C17.7585 19.2373 17.7128 19.7015 17.538 20.1234C17.3633 20.5452 17.0673 20.9058 16.6877 21.1595C16.308 21.4132 15.8616 21.5486 15.405 21.5486C14.7927 21.5486 14.2054 21.3054 13.7724 20.8724C13.3395 20.4394 13.0962 19.8522 13.0962 19.2398ZM22.2981 24.209C22.1959 23.475 21.8323 22.8025 21.2741 22.315C20.716 21.8275 20.0007 21.5577 19.2596 21.5552H18.4701C18.9732 20.8885 19.2435 20.0751 19.2397 19.2398C19.1984 18.2461 18.7746 17.3067 18.0569 16.6182C17.3391 15.9296 16.383 15.5451 15.3884 15.5451C14.3938 15.5451 13.4377 15.9296 12.7199 16.6182C12.0022 17.3067 11.5784 18.2461 11.5371 19.2398C11.5405 20.0751 11.8178 20.8862 12.3266 21.5486H11.557C10.816 21.5511 10.1007 21.8209 9.54247 22.3084C8.9843 22.7959 8.62072 23.4683 8.5185 24.2024C7.93153 23.028 7.65447 21.7231 7.71361 20.4116C7.77275 19.1001 8.16614 17.8255 8.85643 16.7087C9.54671 15.592 10.511 14.6702 11.6577 14.0309C12.8044 13.3917 14.0955 13.0561 15.4083 13.0561C16.7212 13.0561 18.0122 13.3917 19.1589 14.0309C20.3056 14.6702 21.2699 15.592 21.9602 16.7087C22.6505 17.8255 23.0439 19.1001 23.103 20.4116C23.1622 21.7231 22.8851 23.028 22.2981 24.2024V24.209Z" fill="#9EB0C1"/>
</g>
<defs>
<clipPath id="clip0">
<rect width="30.8167" height="43.1434" fill="white"/>
</clipPath>
</defs>
</svg>
