<svg width="614" height="796" viewBox="0 0 614 796" fill="none" xmlns="http://www.w3.org/2000/svg">
<g opacity="0.1">
<path d="M-231.5 0.499512H-126.416C-8.62428 0.499512 86.8608 95.5739 86.8608 212.85V381.542C86.8608 438.251 133.032 484.219 189.982 484.219C246.933 484.219 293.104 438.251 293.104 381.542V212.85C293.104 95.5739 388.589 0.499512 506.381 0.499512H613.25V374.958C613.25 607.215 424.148 795.5 190.875 795.5C-42.3983 795.5 -231.5 607.215 -231.5 374.958V0.499512Z" stroke="url(#paint0_linear)"/>
<path d="M610.49 101.684L613.25 27.0526V374.958C613.25 607.215 424.148 795.5 190.875 795.5C-42.3983 795.5 -231.5 607.215 -231.5 374.958V0.499512H-126.416C-8.62428 0.499512 86.8608 95.5739 86.8608 212.85V380.653C86.8608 437.853 133.432 484.219 190.875 484.219C258.158 484.219 324.508 468.54 384.615 438.436L389.281 436.1C452.285 404.545 506.099 357.415 545.569 299.221L545.936 298.68C585.524 240.313 607.888 172.066 610.49 101.684Z" stroke="url(#paint1_linear)"/>
<path d="M86.8608 692.934C86.8608 744.488 124.692 787.241 174.217 795.179C-51.3347 786.469 -231.5 601.66 -231.5 374.958V0.499512H-126.416C-8.62428 0.499512 86.8608 95.5739 86.8608 212.85V264.36V692.934Z" stroke="url(#paint2_linear)"/>
</g>
<defs>
<linearGradient id="paint0_linear" x1="804.779" y1="979.114" x2="512.663" y2="227.017" gradientUnits="userSpaceOnUse">
<stop stop-color="#706AE1"/>
<stop offset="1" stop-color="#4352ED"/>
</linearGradient>
<linearGradient id="paint1_linear" x1="533.488" y1="42.3698" x2="508.466" y2="500.18" gradientUnits="userSpaceOnUse">
<stop stop-color="#00D6D9"/>
<stop offset="1" stop-color="#455CDA"/>
</linearGradient>
<linearGradient id="paint2_linear" x1="-69.39" y1="-0.000484797" x2="178.186" y2="554.251" gradientUnits="userSpaceOnUse">
<stop stop-color="#00D6D9"/>
<stop offset="1" stop-color="#5272EE"/>
</linearGradient>
</defs>
</svg>
