<svg width="18" height="14" viewBox="0 0 18 14" fill="none" xmlns="http://www.w3.org/2000/svg">
<path fill-rule="evenodd" clip-rule="evenodd" d="M15.4744 2.21372C15.4744 2.21372 14.2175 0.883022 11.3636 0.69043V1.11061C11.3636 1.11061 12.9289 1.01967 14.8665 2.92698C13.4039 1.87474 11.3175 1.21558 8.99991 1.21558C6.68236 1.21558 4.59591 1.87464 3.13334 2.92698C5.07096 1.01967 6.63626 1.11061 6.63626 1.11061V0.69043C3.78237 0.883022 2.52544 2.21372 2.52544 2.21372C0.350786 5.01489 0.228271 11.1429 0.228271 11.1429C2.27671 13.6115 4.85049 13.2965 4.85049 13.2965L5.79591 11.9309C4.57671 11.6011 3.70605 10.8438 3.18275 10.2542C4.6427 11.286 6.70819 11.9309 8.99991 11.9309C11.2916 11.9309 13.3571 11.2861 14.8171 10.2542C14.2938 10.8437 13.4231 11.6011 12.2039 11.9309L13.1493 13.2965C13.1493 13.2965 15.7231 13.6117 17.7715 11.1429C17.7717 11.1428 17.6491 5.01489 15.4744 2.21372ZM6.26872 9.40953C5.44679 9.40953 4.78051 8.70164 4.78051 7.82825C4.78051 6.95495 5.44679 6.24696 6.26872 6.24696C7.09065 6.24696 7.75693 6.95495 7.75693 7.82825C7.75693 8.70154 7.09065 9.40953 6.26872 9.40953ZM10.2431 7.82825C10.2431 8.70164 10.9094 9.40953 11.7313 9.40953C12.5533 9.40953 13.2195 8.70154 13.2195 7.82825C13.2195 6.95495 12.5532 6.24696 11.7313 6.24696C10.9094 6.24696 10.2431 6.95495 10.2431 7.82825Z" fill="white"/>
</svg>
