<svg width="18" height="14" viewBox="0 0 18 14" fill="none" xmlns="http://www.w3.org/2000/svg">
<path fill-rule="evenodd" clip-rule="evenodd" d="M15.4744 2.21372C15.4744 2.21372 14.2175 0.883022 11.3636 0.69043V1.11061C11.3636 1.11061 12.9289 1.01967 14.8665 2.92698C13.404 1.87474 11.3175 1.21558 8.99997 1.21558C6.68243 1.21558 4.59597 1.87464 3.1334 2.92698C5.07102 1.01967 6.63632 1.11061 6.63632 1.11061V0.69043C3.78243 0.883022 2.52551 2.21372 2.52551 2.21372C0.350847 5.01489 0.228333 11.1429 0.228333 11.1429C2.27677 13.6115 4.85055 13.2965 4.85055 13.2965L5.79597 11.9309C4.57677 11.6011 3.70611 10.8438 3.18282 10.2542C4.64276 11.286 6.70825 11.9309 8.99997 11.9309C11.2917 11.9309 13.3572 11.2861 14.8171 10.2542C14.2938 10.8437 13.4232 11.6011 12.204 11.9309L13.1494 13.2965C13.1494 13.2965 15.7232 13.6117 17.7716 11.1429C17.7718 11.1428 17.6492 5.01489 15.4744 2.21372ZM6.26878 9.40953C5.44685 9.40953 4.78057 8.70164 4.78057 7.82825C4.78057 6.95495 5.44685 6.24696 6.26878 6.24696C7.09071 6.24696 7.75699 6.95495 7.75699 7.82825C7.75699 8.70154 7.09071 9.40953 6.26878 9.40953ZM10.2431 7.82825C10.2431 8.70164 10.9094 9.40953 11.7314 9.40953C12.5534 9.40953 13.2196 8.70154 13.2196 7.82825C13.2196 6.95495 12.5533 6.24696 11.7314 6.24696C10.9094 6.24696 10.2431 6.95495 10.2431 7.82825Z" fill="#100D4B"/>
</svg>
