<svg width="14" height="13" viewBox="0 0 14 13" fill="none" xmlns="http://www.w3.org/2000/svg">
<g clip-path="url(#clip0)">
<path d="M3.09227 13V4.22893H0.176939V13H3.09227ZM1.63498 3.03066C2.65161 3.03066 3.28441 2.35715 3.28441 1.51548C3.26547 0.654823 2.65165 0 1.65427 0C0.657055 0 0.00493622 0.654836 0.00493622 1.51548C0.00493622 2.35719 0.637581 3.03066 1.61595 3.03066H1.63489H1.63498ZM4.70589 13H7.62122V8.10181C7.62122 7.83966 7.64016 7.57779 7.71715 7.3904C7.9279 6.86664 8.40759 6.32418 9.21293 6.32418C10.2679 6.32418 10.6899 7.12851 10.6899 8.30761V12.9999H13.605V7.97069C13.605 5.27656 12.1668 4.02301 10.2487 4.02301C8.67596 4.02301 7.98544 4.90209 7.60182 5.50083H7.62128V4.22874H4.70596C4.74422 5.05177 4.70596 12.9998 4.70596 12.9998L4.70589 13Z" fill="#100D4B"/>
</g>
<defs>
<clipPath id="clip0">
<rect width="13.61" height="13" fill="white"/>
</clipPath>
</defs>
</svg>
