<svg width="18" height="16" viewBox="0 0 18 16" fill="none" xmlns="http://www.w3.org/2000/svg">
<path d="M17.1961 15.4588L11.769 12.8498L11.7281 1.023C11.7272 0.746911 12.0154 0.564986 12.2642 0.684628L17.4093 3.15878C17.5389 3.22106 17.6213 3.35212 17.6213 3.49585V15.1914C17.6212 15.41 17.393 15.5535 17.1961 15.4588Z" fill="#696799"/>
<path d="M11.7689 12.8499L5.8952 10.0257L11.5499 0.715793C11.6498 0.551331 11.8582 0.489495 12.0316 0.572868L17.2487 3.08163C17.4481 3.17754 17.5211 3.42466 17.4058 3.61352L11.7689 12.8499Z" fill="#100D4B"/>
<path d="M11.769 12.8498L5.89524 10.0257L0.511407 1.25861C0.361407 1.01436 0.622407 0.725148 0.880721 0.849357L5.89524 3.26069L11.769 12.8498Z" fill="#696799"/>
<path d="M5.47003 15.4588L0.16809 12.9093C0.0653284 12.8598 0 12.7559 0 12.6419V0.882856C0 0.671244 0.22106 0.532214 0.411806 0.623961L5.89522 3.26078V15.1915C5.89522 15.41 5.66695 15.5535 5.47003 15.4588Z" fill="#100D4B"/>
</svg>
