<svg width="18" height="16" viewBox="0 0 18 16" fill="none" xmlns="http://www.w3.org/2000/svg">
<path d="M17.196 15.4588L11.7689 12.8498L11.728 1.023C11.7271 0.746911 12.0153 0.564986 12.2641 0.684628L17.4093 3.15878C17.5388 3.22106 17.6212 3.35212 17.6212 3.49585V15.1914C17.6211 15.41 17.3929 15.5535 17.196 15.4588Z" fill="#A19EDD"/>
<path d="M11.769 12.8499L5.89526 10.0257L11.55 0.715793C11.6498 0.551331 11.8583 0.489495 12.0317 0.572868L17.2487 3.08163C17.4482 3.17754 17.5212 3.42466 17.4059 3.61352L11.769 12.8499Z" fill="white"/>
<path d="M11.7689 12.8498L5.89512 10.0257L0.511285 1.25861C0.361285 1.01436 0.622285 0.725148 0.880599 0.849357L5.89512 3.26069L11.7689 12.8498Z" fill="#A19EDD"/>
<path d="M5.47003 15.4588L0.16809 12.9093C0.0653284 12.8598 0 12.7559 0 12.6419V0.882856C0 0.671244 0.22106 0.532214 0.411806 0.623961L5.89522 3.26078V15.1915C5.89522 15.41 5.66695 15.5535 5.47003 15.4588Z" fill="white"/>
</svg>
