<svg width="16" height="14" viewBox="0 0 16 14" fill="none" xmlns="http://www.w3.org/2000/svg">
<path d="M15.9131 2.12644C15.4127 2.37665 14.3882 2.40173 14.3882 2.40173C15.5156 1.57601 15.4878 0.775292 15.4878 0.775292C14.6753 1.33472 13.955 1.49703 13.4589 1.52653C12.852 0.894298 11.9991 0.5 11.0534 0.5C9.21161 0.5 7.71858 1.99302 7.71858 3.83483C7.71858 4.08718 7.74755 4.33266 7.80069 4.56907C7.44039 4.56137 7.10892 4.52645 6.83401 4.48521C6.83492 4.48361 6.83606 4.48216 6.8369 4.48056C5.17349 4.22562 2.98229 3.42109 1.03908 1.18529C0.775455 1.66261 0.624964 2.21121 0.624964 2.79504C0.624964 3.97343 1.23684 5.00835 2.15946 5.60155C1.64547 5.53263 1.10876 5.42148 0.54987 5.25787C0.585854 5.80197 0.755557 6.34493 1.07087 6.83628C1.67276 7.774 2.66567 8.30819 3.69937 8.3643C3.10144 8.46066 2.45671 8.50976 1.76211 8.49535C1.93868 9.01124 2.24408 9.49116 2.67673 9.88332C3.36156 10.5041 4.23387 10.7871 5.0894 10.7427C3.65569 11.6253 1.96772 12.135 0.160528 12.135C0.135751 12.135 0.111203 12.1342 0.0864258 12.134C1.51099 13.0007 3.1837 13.5 4.97306 13.5C9.94371 13.5 14.4134 9.58455 14.3877 3.82248C15.469 3.03457 15.9131 2.12644 15.9131 2.12644Z" fill="#100D4B"/>
</svg>
